<?xml version="1.0" encoding="utf-8"?>
<!-- Generator: Adobe Illustrator 27.0.0, SVG Export Plug-In . SVG Version: 6.00 Build 0)  -->
<svg version="1.1" id="Laag_1" xmlns="http://www.w3.org/2000/svg" xmlns:xlink="http://www.w3.org/1999/xlink" x="0px" y="0px"
	 viewBox="0 0 1366 768" style="enable-background:new 0 0 1366 768;" xml:space="preserve">
<style type="text/css">
	.st0{fill:#E68E16;}
</style>
<g>
	<g>
		<path class="st0" d="M171,428.3c3.4-2,7-1.5,10.7-1.5c6.4,0,12.8,0.1,19.3,0.1c2.1,0,4.7-2.5,4.6-4.6c0-0.5-0.8-1.2-1.3-1.3
			c-4.2-0.9-5.2-3.9-5-7.5c0.4-8.2,0.9-16.5,1.7-24.7c0.5-5,2.7-6.7,7.8-7.1c2.6-0.2,5.3,0.4,7.7-1.7c1.5-1.3,4.5,0.2,6.3,2.5
			c2.9,3.8,2.9,3.8,5.8,0c22.9-29.7,52-50.9,87-64.1c2.4-0.9,2.8-1.6,1.6-3.8c-2-3.6-2.5-7.6-2-11.8c0.5-3.8,0.2-4-3.6-4
			c-6.9,0.1-13.8,0.5-20.7,0.5c-7,0-14-0.3-21-0.7c-2.7-0.1-4,0.6-3.5,3.5c0.2,1.1,0,2.2,0,3.3c-0.1,1.7-0.1,3,2.2,3.4
			c0.9,0.2,2.2,2,2.1,2.9c-0.1,1.1-1.4,2.8-2.4,3c-1.9,0.5-2,1.4-2,2.9c0,0.9,0,1.7,0,2.6c0,4.7-1.6,6.7-6.3,6.8
			c-11.5,0.1-9.8,1-9.9-9c0-5.1,0-10.1,0-15.2c0-3.7,0.4-4.1,4-4.1c0.7,0,1.5,0,2.2,0c4.3,0,4.3,0,2.4-3.9c-1.7-3.4,0.7-7.6,4.4-8
			c1.2-0.1,2.5,0,3.7,0c30.9,0.1,61.7,0.2,92.6,0.2c1.7,0,3.5-1,5.2-1.1c2.5-0.1,5.2-0.4,7.4,0.4c2.8,1,4.9,1.5,7.9-0.1
			c1.8-1,4.7-0.3,7-0.1c1.7,0.2,3.4,1.3,5.1,1.4c12,0.2,24,0.2,35.9,0.1c6.2-0.1,11.9,1.4,17.4,4.1c11.7,5.8,23.4,11.6,35.2,17.2
			c2.5,1.2,5.4,1.7,7.9,2.8c3.2,1.4,6.2,3,9.2,4.6c4.3,2.2,4.2,2.2,6.9-1.5c4.7-6.6,9.5-13.2,14.2-19.9c3.4-4.8,6.6-9.8,9.9-14.7
			c0.3-0.4,0.5-1.2,0.3-1.7c-2.3-7.3-4.6-14.5-6.9-21.8c-0.7-2.4-1.5-3.6-4.5-3.3c-4.8,0.4-9.4-3.1-10.6-8c-0.6-2.3-1.8-2.9-3.6-2.1
			c-2.5,1.1-5.3,2.2-7.3,4c-6.2,5.8-14,6.3-21.7,6.8c-3.4,0.2-4.8-2.1-3.8-5.4c0.1-0.2,0.2-0.5,0.3-0.7c1.5-5,1.5-5.1-3.5-6.1
			c-0.2,0-0.5,0-0.7-0.1c-1.1-0.8-2.3-1.6-3.4-2.4c1.1-0.8,2.2-1.9,3.4-2.2c3-0.7,6.1-0.9,9.1-1.4c0.6-0.1,1.3-0.3,1.9-0.4
			c-0.6-0.1-1.2-0.3-1.7-0.4c-3-0.4-6.1-0.6-9.1-1.3c-1.4-0.3-2.5-1.5-3.8-2.3c1.3-0.8,2.4-1.8,3.8-2.2c2.1-0.6,4.4-0.6,6.6-0.9
			c0.8-0.1,1.5-0.6,2.2-1c-0.7-0.1-1.4-0.3-2.1-0.4c-2.6-0.3-5.2-0.5-7.7-1.1c-1-0.2-1.7-1.4-2.6-2.2c0.8-0.7,1.5-1.6,2.4-1.9
			c1.1-0.5,2.4-0.5,3.6-0.7c0.9-0.1,1.8-0.3,2.7-0.4c-0.9-0.3-1.8-0.7-2.7-1c-5.5-1.8-11-3.6-16.6-5.2c-3.1-0.9-4.4-2.9-4.5-5.9
			c-0.2-6.2,1.6-11.7,5.9-16.2c4.1-4.2,9.3-4.9,14.7-4.3c9.7,1.1,19.3,2.9,29,3.6c11.4,0.8,22.9,1.1,34.4,0.8
			c12.3-0.3,24.6-1.6,36.9-2.3c6.4-0.3,12.8,0.4,18.9,2.7c5.9,2.2,9.9,6.4,12,12.3c1.7,4.7,0.8,6.5-4,7.8
			c-14.1,3.8-27.9,8.1-40.9,14.9c-3.3,1.8-6.2,4.3-9.3,6.6c-1.5,1.1-2.7,2.5-4.2,3.6c-4.8,3.4-5.8,6.3-3.8,11.8
			c1.1,2.9,2.2,5.7,3.4,8.6c0.7,1.9,1.1,4,3.7,4.6c0.7,0.2,1.2,1.5,1.6,2.4c1.9,4.4,4.1,8.7,5.7,13.3c11.8,32.9,27.2,64.4,40.7,96.7
			c5.8,13.9,11.8,27.7,17.9,41.4c4.2,9.7,5,9.5,15.3,7.8c12.7-2.2,25.3-5,37.7-8.7c37.8-11.1,72.1-28.7,101.4-55.2
			c23.4-21.2,41-46.6,53.7-75.4c5.1-11.6,10.5-23.2,14.2-35.3c2.7-8.7,6.5-16.9,9.7-25.3c0.8-2.1,0.5-3.2-1.6-4.5
			c-1.3-0.8-2.4-2.8-2.8-4.4c-0.4-2,0-4.2,0-6.3c0-1.3-0.2-2.5-0.4-3.8c-0.1-0.8-0.6-2-0.2-2.4c2.1-2.3,0.7-4.3-0.2-6.4
			c-3.9-9.2-7.6-18.4-11.7-27.6c-1.7-3.8-3.7-7.5-5.8-11.1c-2.1-3.6-0.9-6.2,1.8-8.8c1.3-1.3,2.5-2.7,3.7-4.1
			c-1.6-0.9-3.2-1.9-4.7-2.8c-3.1-1.8-6.4-3.3-9.3-5.4c-11.5-8.3-23.7-6.6-36-2.5c-0.6,0.2-1.4,0.6-1.5,0.9c-0.5,2.9-2.8,3-4.9,3.6
			c-15.2,4.5-30.4,9.1-45.6,13.7c-7.5,2.3-12.1-0.5-13.4-8.4c-0.2-1.1-0.2-2.2-0.2-3.3c0-4.3,0.7-5.4,4.8-6.7
			c8.8-2.7,17.7-5.4,26.5-8c7.6-2.2,15.1-4.4,22.7-6.5c1.5-0.4,3.2,0.2,4.8,0.1c2.3-0.2,4.5-0.7,6.7-1.3c0.3-0.1,0.3-2-0.1-2.9
			c-0.3-0.8-1.2-1.8-2-2c-1-0.3-2.3,0.3-3.3-0.1c-1.2-0.5-2.7-1.4-3.1-2.5c-0.7-1.7,0.5-3.4,2.2-3.6c2.9-0.4,5.9-0.6,8.6,0
			c1.7,0.3,1.6,0.2,1.9-1.2c1.1-5.1,3.5-7,8.8-7c4.7,0,9.4,0,14.1,0c4.1,0,6.9,1.5,7.9,4.8c1.2,4,1.9,8.3-1.8,11.3
			c-2.5,2-1.3,2.1,0.6,3.1c8.3,4.5,16.6,9.2,24.8,14c2.4,1.4,4.6,2.2,7.6,1.5c4.6-1.1,8.5,0.9,11.4,4.6c2.8,3.5,2.1,7.2,0.2,10.8
			c-1.4,2.6-3,5.1-4.8,7.4c-2.7,3.3-5,3.5-8.7,1.2c-0.5-0.3-1-0.5-1.5-0.8c-0.1,0.6-0.4,1.2-0.3,1.8c0.2,1,0.5,1.9,0.9,2.8
			c4.3,10.2,8.6,20.4,12.9,30.7c0.6,1.5,1.1,2.9,3.1,3.2c1,0.2,2.1,1.4,2.6,2.4c1,2.1,2.5,2,4.3,1.4c5.4-2,10.9-3.9,16.4-5.8
			c2-0.7,2.6-1.6,1.9-3.8c-3.1-9.6-6-19.3-8.9-29c-1-3.1-1.2-6.1,1.8-8.4c3.9-3,8.8-1.4,10.5,3.8c1.9,5.7,3.5,11.6,5.2,17.3
			c9.8,32.6,19.5,65.1,29.4,97.7c3.6,11.9,7.8,23.6,11.6,35.4c0.9,2.7,2.3,2,3.9,1.3c0.4-0.2,0.9-0.9,0.9-1.3
			c-0.1-0.4-0.8-1.1-1.1-1.1c-2.6,0.3-3-1.5-3.5-3.4c-2.1-7.6-4.3-15.2-6.5-22.7c-0.6-2.2-0.9-3.7,1.9-4.5c2.6-0.7,0.7-2.6,0.5-4
			c-0.2-1.3-0.5-3-2.5-2.3c-2.4,1-3.4-0.1-4-2.2c-2.2-7.8-4.5-15.6-6.8-23.4c-0.7-2.3-0.8-4.1,2.2-4.7c0.5-0.1,1.2-1.5,1-1.9
			c-0.7-1.5,0.1-4.6-2.6-4c-3.8,0.8-4.3-1.3-5-4c-2-7.1-4.1-14.2-6.2-21.3c-1.1-3.7-1-4,2.8-5.2c16.5-4.8,33.1-9.6,49.6-14.4
			c28.1-8.2,56.3-16.3,84.4-24.5c11.5-3.3,22.9-6.7,34.4-9.9c4.1-1.2,4.2-1,5.4,3c2.2,7.4,4.3,14.9,6.6,22.3
			c0.8,2.6,0.3,4.1-2.2,4.8c-3.6,1-0.8,3.2-0.8,4.8c-0.1,2.2,1.4,1.8,2.8,1.4c2.2-0.6,3.4,0.1,4,2.5c2.1,7.8,4.5,15.6,6.8,23.4
			c0.7,2.3,0.6,3.9-2.1,4.3c-2.5,0.4-1.7,2-1.1,3.3c0.6,1.2-0.2,4,2.9,2.8c2.1-0.8,3.4,0.1,4,2.4c2.2,7.8,4.5,15.6,6.8,23.4
			c0.5,1.8,0.9,3.6-1.5,4.6c-0.4,0.2-0.6,1.9-0.3,2.7c0.9,2.2,0.2,3.1-1.9,3.7c-5.2,1.5-10.4,3-15.6,4.6c-1,0.3-2,0.4-1,2.2
			c2.4,4.2,0.7,7.9-4,9.5c-3.5,1.1-7.1,2-10.7,3c-1.1,0.3-2.2,0.5-3.2,1c-0.7,0.4-1.7,1.2-1.6,1.8c0.1,1.4,1,1.8,2.7,1.6
			c6.6-0.8,13.2-1.6,19.8-1.9c3.1-0.1,6.3,0.7,9.5,1.2c2.6,0.4,3.4,1.9,3,4.5c-0.3,1.9-0.2,3.9,0.3,5.7c2.3,9.7,0.5,18.6-5.2,26.7
			c-0.8,1.2-2.8,2.3-4.2,2.3c-4.7,0-9.3-0.4-14-1.1c-1.9-0.3-2.8-0.2-3.6,1.8c-0.5,1.2-2.1,2.1-3.2,3c-0.9,0.7-1.8,1.4-2.7,2
			c0.8,0.7,1.6,1.7,2.5,2c30.2,10.2,56.1,26.9,77.5,50.6c21.1,23.5,34.8,50.8,40.8,81.7c13.5,70.3-17.4,140.2-78.6,178.7
			c-18,11.3-37.5,19.1-58.3,23.5c-1.5,0.3-3,1-4.5,1.5c-21.2,0-42.5,0-63.7,0c-4.4-1.1-8.7-2.3-13.1-3.4
			c-37.6-9.7-68.9-29.4-93.7-59.3c-22.9-27.6-36.1-59.1-39.3-94.9c-0.1-1.3-1-2.6-1.5-3.9c-0.2,1.4-0.6,2.8-0.4,4.1
			c1.7,10.1,3.7,20.1,5.3,30.2c0.3,2.1,0.4,4.6-0.5,6.3c-1.6,3-3.9,5.7-6.1,8.3c-2.9,3.4-4.2,3.1-5.6-1.2c-4.7-14.6-8-29.5-8.9-44.9
			c-0.1-1.9-0.3-3.3-2.5-4.4c-2.4-1.2-2.7-4.6-0.4-5.7c2.3-1.2,2.1-2.9,2.3-4.8c1-11.8,1.2-23.7,3.5-35.3
			c9.1-47.1,33.7-84.7,71.8-113.6c0.8-0.6,1.2-1.6,1.9-2.3c-1-0.4-2-1.1-3-1.2c-2.5-0.1-3.4-2-3.9-3.8c-0.3-1.2-0.3-3,0.4-4
			c1.9-2.8,1.6-4.8-1.6-6.2c-3-1.4-3.8-2.9-3.6-6.4c0.1-1-0.5-2-0.7-2.9c-0.9,0.3-1.9,0.4-2.5,1c-4.9,4-9.8,7.8-14.4,12.1
			c-23,20.9-45.9,42-68.8,63c-32.9,30.2-65.8,60.4-98.8,90.6c-1.8,1.7-2.3,2.7-0.8,5.1c16.2,26,10,60-14.5,78.5
			c-2.3,1.7-2.2,3.1-1,5.2c3,5.4,6.1,10.8,8.7,16.3c1.7,3.7,4.1,6,8.3,5.9c2.1,0,4.4,0,6.4-0.5c2.4-0.6,4.4-0.5,6,1.5
			c1.5,1.9,1.3,3.8-0.2,5.7c-1.6,1.9-1.3,3.9,0.1,5.8c1.4,1.8,1.9,3.6,0.5,5.4c-1.5,2.1-3.6,2.1-6,1.5c-2.1-0.5-4.4-0.6-6.5-0.4
			c-3.7,0.3-7.4,1.6-11,1.3c-5.6-0.4-11-2.5-16.8-0.6c-1.2,0.4-3.7-1-4.5-2.3c-0.7-1-0.2-3.3,0.6-4.6c1.3-2.3,1.4-4.3-0.1-6.4
			c-2-2.9-0.9-6.1,2.4-6.8c1.3-0.3,2.9,0.3,4.3,0.5c0.5,0.1,1.1,0,1.6,0.1c-0.2-0.5-0.3-0.9-0.5-1.4c-2.7-5-5.4-10-8-15
			c-0.8-1.6-1.7-1.6-3.3-1.1c-9.4,3.2-19.2,3.6-28.9,2.2c-28.5-4.1-57-8.6-85.5-13c-2.4-0.4-3.7,0.1-4.9,2.4
			c-25.3,49.3-64.7,81.2-118.6,94.6c-3.4,0.9-6.9,1.9-10.3,2.8c-20.7,0-41.5,0-62.2,0c-1.2-0.5-2.4-1-3.7-1.4
			c-9.8-2.8-19.9-4.9-29.4-8.5c-44.1-17.2-76.7-47.3-97.3-89.9c-12.9-26.6-18.1-54.9-15.7-84.5c1.1-13.8,3.6-27.4,7.8-40.6
			c0.3-0.8-0.2-1.9-0.3-2.8c-0.5,0.8-1.1,1.5-1.4,2.3c-3.7,11.7-6.3,23.6-7.4,35.8c-0.9,10.7-0.9,10.7-10.3,15.8
			c-0.2,0.1-0.4,0.3-0.6,0.4c-3.7,1.8-5.5,0.8-5.3-3.3c0.4-7.4,0.6-14.8,1.9-22.1c1.8-10.4,4.5-20.7,6.8-31c0.7-3.2,0.9-3.3-2.5-3.4
			c-5.8-0.1-11.6-0.1-17.4-0.2c-3.3,0-6.4-0.6-8.9-2.9C171,430.8,171,429.5,171,428.3z M973.4,309.3c-0.2,0.2-0.5,0.4-0.7,0.6
			c-0.1,0.1-0.1,0.3-0.2,0.5C972.8,310,973.1,309.7,973.4,309.3c1.4,0.1,2.7,0.1,4.1,0.2c12.6-2.6,25.4-3.5,38.2-3.3
			c2,0,4,0.1,5.9,0.2c3.1,0.3,3.5,1,1.7,3.7c-2,2.9-4.3,5.7-6.4,8.6c-1.4,2-3.1,2.8-5.6,2.9c-4.9,0.1-9.9,0.4-14.8,0.9
			c-24.2,2.8-47.4,9.1-68.9,20.7c-2.1,1.1-4.1,2.3-6.1,3.5c-0.3,0.2-0.5,0.7-0.7,1.1c0.5,0.1,1,0.3,1.5,0.2c0.5-0.1,0.9-0.5,1.3-0.7
			c18.7-10.9,38.7-18.1,60.1-21.6c20.1-3.3,40-3.4,60,0.1c1.9,0.3,3.2,0,4.5-1.6c2.3-2.9,4.5-5.9,8.3-7c1.9-0.5,0.4-1.1-0.1-1.5
			c-2.2-1.9-4.7-3.6-6.6-5.8c-3.7-4.2-3.8-9.1-0.6-13.6c0.9-1.3,2.1-2.4,3.1-3.6c0.4-0.5,0.7-1.1,1-1.7c-0.6-0.2-1.1-0.5-1.7-0.6
			c-4.9-0.4-9.8-1.4-14.7,0.7c-3.4,1.4-7.1,2.1-10.6,3.1c-15.3,4.4-30.5,8.8-45.7,13.3c-1.1,0.3-2,1.2-3.1,1.9
			C976.2,309.4,974.8,309.4,973.4,309.3z M362.3,465.1c0,0.4,0,0.9-0.1,1.3c0.1,0,0.3,0,0.4,0C362.6,466,362.4,465.6,362.3,465.1
			c-0.3-0.6-0.5-1.2-0.8-1.8c0,0-0.4,0.1-0.6,0.1C361.4,464,361.9,464.6,362.3,465.1z M379.8,499.8c0.1-0.2,0.2-0.4,0.2-0.5
			C379.9,499.4,379.8,499.5,379.8,499.8c0.3,0.7,0.4,1.6,1,2.2c0.5,0.5,1.4,0.7,2.1,1.1c-0.4-0.5-0.9-1-1.3-1.5
			C380.9,500.9,380.3,500.3,379.8,499.8z M434.3,436.9c-1.7,1.8-3.4,3.7-5.1,5.5c-0.1,0.1,0.1,0.3,0.2,0.5c0.3-0.2,0.7-0.3,0.9-0.6
			C431.7,440.6,433.1,438.7,434.3,436.9c0-0.2-0.1-0.3-0.1-0.5c0.1,0,0.2,0,0.3,0C434.4,436.6,434.4,436.8,434.3,436.9z
			 M1016.3,505.2c0.1,0.1,0.1,0.2,0.2,0.3c0,0.1,0.2,0.1,0.2,0.1C1016.5,505.5,1016.4,505.4,1016.3,505.2c-1.2-0.8-2.4-1.6-3.6-2.6
			c-0.6-0.4-1-1-1.6-1.5c0.2,0.8,0.3,1.7,0.7,2.4C1012.8,505.2,1014.4,505.8,1016.3,505.2z M378,503.5c0.2,0.1,0.3,0.1,0.5,0.2
			C378.3,503.6,378.1,503.5,378,503.5c-0.3-2.1-3.6-5.1-5.3-4.7c-0.2,0-0.6,0.3-0.6,0.3c0.2,0.4,0.3,1,0.6,1.2
			C374.5,501.4,376.2,502.4,378,503.5z M335.3,481.2c-0.2,0-0.3,0-0.5-0.1C334.9,481.2,335.1,481.3,335.3,481.2
			c2.3,1.5,4.5,2.9,6.9,4.2c0.5,0.3,1.3-0.1,2-0.2c-0.5-0.4-0.9-1.1-1.4-1.3C340.2,483,337.7,482.1,335.3,481.2z M513.4,363
			c-0.4-0.2-0.7-0.3-1.1-0.5c0,0.1-0.1,0.2-0.1,0.3C512.6,362.9,513,362.9,513.4,363c3,1.4,5.7,0.4,7.3-2.8
			c2.2-4.1,1.3-9.7-2.1-13.6c-0.3-0.3-0.5-0.7-0.8-1c-0.1,0.1-0.3,0.2-0.3,0.2c0.3,0.3,0.5,0.7,0.8,1c0.6,1.6,1.5,3.1,1.9,4.7
			C522,358,519.5,363.7,513.4,363z M1016.2,509.2c0.3,0.3,0.7,0.7,1,1c0.9,0.9,1.9,1.8,3,0.4c0.7-0.8,1.2-1.8,1.8-2.7
			c-1,0.2-2.1,0.2-3.1,0.5c-0.9,0.2-1.8,0.6-2.7,0.9c-2.6-1-5.1-2.1-7.8-3c-0.7-0.2-1.6,0.2-2.4,0.4c0,0,0,0.8,0.1,0.9
			c0.7,0.3,1.5,0.5,2.3,0.7c0.9,0.2,2.5,0.4,2.5,0.8c0.4,4.7,2.2,1.6,3.7,0.8C1015,509.4,1015.7,509.4,1016.2,509.2z M1037.4,555.3
			c0,0.2,0,0.4,0,0.7C1037.4,555.8,1037.4,555.6,1037.4,555.3c-0.7-3.3-1.6-6.7-2-10.1c-0.5-3.6-2.7-5.9-4.9-8.4
			c-0.3-0.3-0.8-0.3-1.2-0.5c-0.1,0.3-0.2,0.7-0.2,1c-0.7,7.5,4.1,12.6,8.1,18C1037.2,555.5,1037.4,555.4,1037.4,555.3z M944,319
			c-1,0-2-0.3-2.9,0c-7.3,2-14.6,4.3-21.9,6.2c-2.8,0.7-2.6,2.5-2,4.2c1,2.5,2.5,0.3,3.5-0.2c7.8-3.3,15.5-6.8,23.2-10.3
			c0.2-0.2,0.5-0.4,0.7-0.6c-0.2,0-0.4-0.1-0.6-0.1C944.1,318.4,944,318.7,944,319z M276.4,453.1c0.2,0,0.3,0,0.5,0.1
			C276.7,453.1,276.6,453.1,276.4,453.1c-0.4-0.6-0.6-1.4-1.1-1.7c-1.9-1.2-3.9-2.2-5.8-3.3c-6.1-3.5-12.1-7-18.3-10.4
			c-0.9-0.5-2.9-1-3.1-0.7c-0.9,1.4-1.6,3.1-1.8,4.7c-0.1,0.4,2,1.1,3,1.6c0.4,0.2,0.9,0.3,1.4,0.5
			C259.4,447,267.9,450.1,276.4,453.1z M694,612.7c4.9,0.1,9.7,0.1,14.6,0.1c0.3,0,1.1-1.2,0.9-1.4c-2-3.4-2.3-6.9-0.2-10.3
			c0.9-1.5-0.2-2-1.2-1.6c-5.1,2-9.9,0.2-14.8-0.6c-1.9-0.3-4,0.4-5.9,0.6c-5,0.1-9.9,1.8-15,0.1c-1.5-0.5-1.3,0.7-0.7,1.8
			c1.6,3.1,1.7,6.3,0.2,9.5c-0.2,0.5-0.4,1.1-0.6,1.6c0.7,0.1,1.4,0.2,2.1,0.3c4.2,0.1,8.5,0.3,12.7,0.3
			C688.8,613,691.4,612.8,694,612.7z M1037.2,398.8c-0.5,0.9-1.3,1.7-1.6,2.6c-4.9,14-9.4,28.1-14.7,41.9
			c-2.2,5.9-1.8,11.2-0.3,16.9c0.1,0.4,0.3,0.8,0.5,1.2c0.2-0.5,0.4-0.9,0.5-1.4c3-11.6,6-23.2,8.9-34.7
			C1032.8,416.5,1035,407.6,1037.2,398.8c0.1-0.5,0.3-0.9,0.4-1.3c-0.2,0-0.3,0-0.5-0.1C1037.2,397.9,1037.2,398.4,1037.2,398.8z
			 M536.1,288.1c0.7-1.4,1.3-2.8,2-4.1c0.3-0.5,0.9-1,1.3-1.4c0.4,0.4,1.1,0.9,1.1,1.3c-0.1,2.9,1.4,2,2.9,1.4
			c1.6-0.7,3.1-1.4,4.8-1.9c1.3-0.4,1.4-1,0.9-2.1c-2-4.5-3.9-9-5.7-13.6c-0.5-1.3-1.2-1.6-2.5-1c-2.9,1.3-5.9,2.4-8.8,3.7
			c-0.9,0.4-2.5,1.5-2.3,1.8c0.5,1.7,1.3,4.5,2.3,4.6c4.4,0.6,1.9,2,0.7,3.4c-0.5,0.6-1.1,1.1-1.4,1.7c-0.1,0.3,0.2,1.2,0.4,1.2
			c3.2,0.3,4.5,2.1,4.4,5.2c-3.1,3.2-4.8,3.2-7.4,0.1c-0.3-0.3-0.6-0.6-0.9-0.9c-0.2,0.5-0.7,1.1-0.6,1.5c0.2,0.9,0.5,1.9,1.2,2.4
			C531.3,293.8,534.8,292.2,536.1,288.1z M517.8,338c-2-0.4-3.9-0.8-4.7-3.1c-0.1-0.2-1.6,0.2-1.7,0c-0.4-0.7-0.4-1.7-0.6-2.5
			c0,0-0.6-0.1-0.7,0.1c-0.6,0.6-1.1,1.3-1.6,2c-8.3,11.4-16.6,22.7-24.7,34.1c-4.7,6.5-9.1,13.2-13.5,19.9c-2,3-0.9,5.6,2.5,5.8
			c1.8,0.1,3.9-0.6,5.3-1.6c1.7-1.3,2.9-3.3,4.2-5.1c6.8-9.4,13.5-18.9,20.3-28.2c1.4-1.9,2.1-3.5,1.9-6c-0.5-4.8,1.1-8.9,5.1-12
			c1.5-1.1,1.4-0.3,1.8,0.8c0.4,1.4,1,2.8,1.7,4.2c0.1,0.2,1.3,0.2,1.4,0C515.6,343.5,516.6,340.7,517.8,338
			c0.3-0.2,0.7-0.4,1.1-0.6c-0.1-0.1-0.2-0.3-0.3-0.4C518.3,337.3,518,337.6,517.8,338z M413.9,572.8c0-0.3-0.1-0.6-0.1-0.9
			c-0.1,0-0.2,0.1-0.3,0.1C413.7,572.2,413.8,572.5,413.9,572.8c0.3,2,0.5,4.1,0.8,6.1c3.5,18.5,7.1,37,10.6,55.5
			c0.5,2.7,1.3,3.5,4.1,2.4c5.1-2,10.4-3.8,15.6-5.4c2.5-0.8,2.5-1.8,1.3-3.9c-8.8-15.2-17.5-30.5-26.4-45.7
			C418.2,578.6,416,575.8,413.9,572.8z M317,537.9c-0.8,0.1-1.7,0.1-2.5,0.3c-20.3,7.6-40.5,15.3-60.8,22.8
			c-2.2,0.8-2.2,1.8-1.1,3.5c3.1,4.9,6.3,9.7,9.2,14.7c1.6,2.8,2.7,2.1,4.7,0.5c11.8-9.7,23.6-19.4,35.4-29.1
			C307,546.6,311.9,542.2,317,537.9c0.2-0.2,0.5-0.3,0.7-0.4c-0.1-0.1-0.3-0.2-0.4-0.3C317.2,537.5,317.1,537.7,317,537.9z
			 M509.6,364.6c-1.3-1.3-2.5-2.6-3.8-3.9c-0.1,0.2-0.3,0.6-0.3,0.6C506.8,362.4,508.2,363.5,509.6,364.6c0.8,0.8,1.5,1.8,2.4,2.6
			c26,24.5,43.2,54.1,51.5,88.8c1.6,6.7,1.5,6.7,8.3,6.2c0.1,0,0.2,0,0.4,0c1.2,0,1.9-0.2,1.5-1.7c-0.3-0.9-0.3-1.9-0.5-2.9
			c-4.9-22.6-13.6-43.7-26.3-63.1c-6.8-10.4-14.5-19.9-23.2-28.7c-0.7-0.7-2.4-1.7-2.8-1.4C517,367.4,513.3,366,509.6,364.6z
			 M371.3,488c0.2,0.8,0.4,1.6,0.7,2.3c0,0.1,0.4,0,0.7,0c-0.4-0.7-0.8-1.3-1.2-2C371.4,488.3,371.3,488.2,371.3,488
			c-0.5-1.7-0.6-3.4,1.3-4.4c1.8-1,3.5-0.8,5.1,0.6c0.2,0.2,0.6,0.1,0.9,0.2c-0.2,1.4-0.5,2.8-0.7,4.2c0,0.3,0,0.6,0,0.9
			c0.3-0.2,0.8-0.4,0.8-0.6c0-1.5-0.1-3-0.2-4.5c-0.4-1.4-0.8-2.8-1.3-4.2c-2.6-7.7-5.2-15.4-7.8-23.1c-0.4-1.3-1.1-2.5-1.6-3.7
			c-1.5-4.3-3.1-8.5-4.2-12.9c-1.1-4.1-1.3-8.5-2.5-12.6c-9.4-32.8-19.1-65.5-28.5-98.3c-1.3-4.5-2.7-9.1-2.9-13.7
			c-0.3-5.5-1.7-10.7-3.7-15.7c-0.2-0.6-1.1-1.3-1.7-1.4c-1.5-0.2-3-0.2-4.4,0c-0.6,0.1-1.4,1-1.4,1.5c-0.5,4.9-0.8,10,2.1,14.3
			c4.4,6.5,5.9,14,8.1,21.3c10.5,36.2,21,72.4,31.3,108.6c3.7,12.9,6.7,26,10,39C370.4,485.1,370.9,486.6,371.3,488z M1070.5,304.9
			c-0.9,0.3-2.1,1.2-2.7,0.9c-4.2-2.5-3.1,1.2-3.7,3c-0.1,0.2-0.2,0.5-0.2,0.7c-9.2,35.8-18.1,71.6-27.7,107.3
			c-6.7,24.9-11,50.6-21.1,74.5c-0.8,1.9-1.2,3.4,2,2.9c1.2-0.2,2.9,0.7,3.8,1.7c1.5,1.6,1.9,0.8,2.3-0.7c0.2-0.8,0.6-1.6,0.7-2.5
			c0.6-3.7,0.9-7.5,1.7-11.2c0.9-4.5,2.2-8.8,3.4-13.2c11.8-45.8,23.6-91.6,35.4-137.4C1066.6,322.3,1068.5,313.6,1070.5,304.9
			c0-0.3,0-0.4,0-0.6C1070.5,304.5,1070.5,304.7,1070.5,304.9z M1063.7,519.4c-0.1-0.2-0.2-0.3-0.3-0.5c-0.1,0.1-0.2,0.2-0.3,0.3
			C1063.4,519.3,1063.6,519.3,1063.7,519.4c1.1,1,1.9,2.2,3.1,3c4.4,3.2,8.6,7.4,13.5,9.3c22.6,8.7,45.5,16.7,68.2,25.1
			c2.5,0.9,3.2,0.2,4-1.8c1.7-4.4,3.5-8.7,5.1-13.1c2.2-6,2.1-6-4.1-7c-24.3-4.3-48.7-8.7-73-13
			C1074.9,520.9,1069.3,520.2,1063.7,519.4z M359,495.6c-0.5,0-1.2-0.1-1.4,0.2c-0.5,0.8-1,1.7-1.2,2.7c0,0.2,1.3,1.1,1.6,0.9
			c0.8-0.4,1.4-1.2,1.9-2c0.2-0.2,0-0.7,0-1.1c0.4,0.4,1,0.7,1.3,1.1c0.3,0.4,0.3,1,0.4,1.5c0.2-0.5,0.4-1,0.6-1.6
			c0.3-1.2,0.2-2.6,0.9-3.5c1.6-2.3,0.3-2.9-1.6-3.5c-3.6-1.2-7.2-2.4-10.8-3.8c-1.9-0.7-2.8,0-3.3,1.7c-0.3,0.8-0.6,1.6-0.8,2.5
			c-4.1,15.5,5.6,31.2,22.2,35.5c4.8,1.3,9.6,2.3,14.4,3.4c24.5,5.6,48.9,11.4,73.4,16.7c23.5,5.1,47,9.9,70.5,14.5
			c18.7,3.6,37.6,6.7,56.4,9.7c18.2,2.9,36.6,5.4,54.9,7.9c8.5,1.2,17,0.4,25.2-2.1c0.7-0.2,1.9-1.1,1.8-1.3
			c-0.8-1.8-1.5-3.7-2.8-5.2c-0.5-0.6-2.3-0.2-3.4,0.1c-8,2.2-16,2.3-24.1,0.6c-19.8-4.3-36.5-22.3-38.7-42
			c-4.3-37.7,29.3-60.7,56.7-55.9c20.2,3.5,34.7,14,41.2,33.7c6.7,20.3,1.5,37.9-14,52.5c-3.7,3.5-3.7,3.4-1.1,7.8
			c1,1.6,1.6,1.4,2.8,0.4c17.6-14.4,25.5-32.8,21.4-55.3c-5-27.1-28.5-46.4-56-46.3c-70.2,0.3-140.5,1-210.7,1.5
			c-7.5,0.1-15.1,0.2-22.6,0.6c-1.3,0.1-2.9,0.8-3.7,1.7c-3.3,4.4-6.5,9-9.5,13.6c-2.2,3.4-1.3,6,2.3,7.9c1.2,0.6,2.5,1.2,3.8,1.3
			c10.4,1.2,20.8,2.4,31.2,3.5c0.8,0.1,1.9-0.8,2.6-1.5c3.4-4,7.5-5.9,12.9-5.8c37.9,0.4,75.8,0.7,113.7,1c1.9,0,3.7,0,5.6,0.1
			c10.6,0.6,18.3,10,16.8,20.2c-0.7,5-1.1,10-1.2,15c-0.2,9.4-7.3,16.8-16.7,16.5c-4.5-0.1-9-1.1-13.5-1.9
			c-21.9-4-43.8-8.2-65.7-12.2c-14.6-2.7-29.3-5.4-44-8.1c-4-0.7-7-2.7-8.9-6.5c-0.5-1-1.9-2-2.9-2.1c-4.2-0.5-8.4-0.7-12.5-1.1
			c-1.7-0.2-2.9,0.1-2.8,2.2c0,0.4-0.2,0.8-0.3,1.2c-0.1-0.5-0.2-1-0.4-1.4c-0.6-0.9-1.2-2.3-2-2.5c-2.9-0.4-5.9-0.8-8.8-0.5
			c-6.7,0.9-13.2,0.7-19.8-0.7c-0.6-0.1-1.2-0.2-1.7-0.2c0.1,0.5,0.4,1.1,0.4,1.6c0.1,1.5,0.7,3.7,0,4.3c-1,0.9-3.2,1.2-4.7,0.9
			c-3.4-0.7-6.6-1.8-9.9-2.9c-4.8-1.6-9-3.9-11.2-8.9c-0.6-1.3-1.6-3-3.6-1.4c-1.5,1.1-3.2,0.8-4.2-0.6c-0.5-0.8-0.6-2.4-0.2-3.3
			C355.5,494.8,357.1,494.5,359,495.6z M1188.8,500.4c-0.2-32.9-7.6-60.7-22.4-86.4c-21.2-36.9-52.1-62.2-92-76.8
			c-7.4-2.7-7.4-2.7-9.4,5.1c-1,4-1,4,2.8,5.3c39.8,14.1,70.4,39.2,90.3,76.6c17.4,32.6,22.7,67.3,15.3,103.6
			c-7,34-23.6,62.6-49.6,85.5c-36.7,32.4-79.6,45.6-128.3,40.2c-25.8-2.9-49.6-11.4-71.2-25.9c-31.2-21.1-53.2-49.3-64.6-85.3
			c-3.4-10.7-5.5-21.7-6.4-33c-0.2-2.5-1-3.5-3.5-3.2c-2,0.2-4,0.2-5.9,0.1c-2.8-0.3-3.4,1.1-3,3.5c1.3,8.1,2.2,16.4,4,24.4
			c8.6,36.8,27.7,67.4,56.6,91.5c42.2,35.3,91,47.5,144.9,38.7c34.8-5.6,64.9-21.4,90.2-46C1170.5,585.2,1187.9,544.8,1188.8,500.4z
			 M211.8,496.7c0,3.6,0,7.2,0,10.7c0,0.7,0.1,1.5,0.1,2.2c3.4,35.4,15.8,67.2,39.2,94.1c43.1,49.6,97.7,70.1,162.8,60.8
			c40.8-5.9,74.8-25.3,102.4-55.8c10.6-11.7,19.4-24.6,26.2-38.8c1.1-2.2,0.9-3-1.7-3.2c-2.2-0.2-4.4-0.7-6.5-1.3
			c-2.3-0.6-3.4,0.1-4.6,2.3c-7.6,14.8-17.3,28.1-29.3,39.8c-31.2,30.3-68.6,46-112,47.3c-16.7,0.5-33.2-2.1-49.2-6.9
			c-37-11-66.6-32.4-88.3-64.2c-27-39.7-33.8-83.2-21.4-129.6c0.7-2.7,2.5-6.1,1.4-7.8c-1.2-1.9-5-2.1-7.6-3.2
			c-2-0.8-2.9-0.7-3.7,1.7C214.5,461.6,211.5,478.9,211.8,496.7z M694.4,523.4c-0.3-28.5-22.2-49.6-49.6-48.9
			c-25.3,0.6-45.3,20.8-46.3,45.4c-1.3,31.9,29.1,56,60.1,47.7c2.1-0.6,2.6-1.2,1.5-3.2c-3.7-6.7-7.4-13.4-10.8-20.2
			c-2.1-4.2-4.7-7.5-9.1-9.6c-5.5-2.7-8.3-8.9-7.3-14.5c1.2-6.8,7.9-12.2,14.3-11.5c7.6,0.9,13.5,6.9,12.8,14.1
			c-0.6,5.6,1.2,10.1,3.7,14.7c3.5,6.5,7,13,10.3,19.7c1.2,2.4,2,2.4,3.9,0.8C688.5,548.3,693.9,536.3,694.4,523.4z M592.4,462.3
			c0-0.1,0-0.3,0-0.4c4.3,0,8.6-0.1,13,0c2.8,0.1,2.7-0.9,1.6-2.9c-1.2-2.1-2.3-4.4-3.3-6.6c-4-9.4-7.8-18.9-11.9-28.2
			c-14.1-32.7-28.2-65.4-42.4-98.1c-4.2-9.6-8.3-19.2-12.5-28.8c-0.5-1.1-0.9-3.6-2.8-1c-5.2,7.2-10.3,14.5-15.5,21.7
			c-0.7,1-0.9,1.5,0.6,2.1c2.2,0.8,4.3,1.8,6.2,3c5,3.3,6,7.6,2.9,12.7c-1.7,2.7-3.5,5.4-5.5,7.9c-1.1,1.4-1.2,2.4-0.3,3.9
			c1.8,3.2,2.7,6.8,1.7,10.3c-0.8,2.8,0.2,4.3,2,6c26.7,26.8,43.4,58.9,50.7,96c0.4,1.9,1.1,2.4,2.9,2.4
			C584,462.2,588.2,462.3,592.4,462.3z M911.9,228.6c3-0.8,5.3-1.4,7.7-2.1c39.1-11.3,78.3-22.6,117.4-33.9c13.8-4,27.7-8,41.5-11.9
			c2.5-0.7,3-1.6,2.2-4c-2-6.2-3.8-12.5-5.5-18.8c-0.5-1.7-1-2.1-2.7-1.5c-6.5,2-13,3.8-19.5,5.7c-38.3,11.1-76.6,22.3-114.9,33.4
			c-10.4,3-20.8,6-31.2,9c-1.4,0.4-2.5,0.6-1.9,2.7c2,6.5,3.7,13,5.6,19.5C910.8,227.4,911.5,228,911.9,228.6z M1092,215.7
			c-0.4-1-0.5-1.3-0.6-1.7c-1.8-6.3-3.7-12.5-5.5-18.8c-0.6-2.3-1.6-2.8-3.9-2.1c-12,3.6-24.1,7.1-36.1,10.6
			c-25.9,7.5-51.8,14.9-77.7,22.4c-16.7,4.8-33.3,9.7-50,14.5c-2.6,0.7-2.9,1.7-2.1,4.1c1.9,5.8,3.7,11.8,5.2,17.7
			c0.6,2.5,1.7,2.6,3.8,2c46-13.3,92-26.5,138-39.8c8.7-2.5,17.5-5,26.2-7.6C1090.2,216.8,1091.1,216.1,1092,215.7z M1102.4,252.2
			c-0.3-0.9-0.3-1.1-0.4-1.3c-2-6.7-4-13.5-5.9-20.2c-0.5-1.6-1.2-1.6-2.7-1.2c-10.4,3.1-20.8,6-31.2,9.1
			c-36.6,10.6-73.3,21.3-109.9,31.9c-7.9,2.3-15.9,4.5-23.8,6.7c-1.3,0.4-2.6,0.5-1.9,2.6c2,6.5,3.9,13,5.6,19.5
			c0.5,2,1.4,2.2,3.1,1.6c3.4-1.1,6.9-2,10.3-3c42.2-12.2,84.4-24.3,126.7-36.5c9.1-2.6,18.2-5.3,27.3-8
			C1100.6,253.2,1101.5,252.7,1102.4,252.2z M527.2,232.2c7.2,0.2,14.1-1.9,20.8-5c5.7-2.6,11.3-5.6,17.2-7.7
			c9.6-3.5,19.3-6.5,29-9.6c2.3-0.7,3-1.5,2.1-3.9c-1.5-4.2-3.8-7.7-8-9.1c-4.4-1.5-9-3.3-13.5-3.3c-11.3,0-22.7,0.8-34,1.7
			c-17.9,1.4-35.7,0.9-53.5-1.5c-7.4-1-14.9-1.9-22.4-2.6c-5.5-0.5-9.1,2.5-11.5,7.1c-1.1,2-1.7,4.4-2.1,6.7
			c-0.9,4.9-0.3,5.6,4.5,7.1c0.9,0.3,1.9,0.5,2.8,0.8c15.3,4.7,30.6,9.1,45.8,14.2C511.8,229.6,519,232.3,527.2,232.2z M623.1,444.9
			c2.6,6.3,4.6,11.3,6.9,16.2c0.2,0.5,1.7,0.7,2.7,0.7c3.9,0.1,7.9,0,11.8,0c13.2,0.1,25.7,2.9,36.6,10.7c1.5,1.1,2.5,0.9,3.8-0.4
			c2.7-2.7,5.5-5.3,8.3-7.9c23.2-21.3,46.3-42.5,69.5-63.8c5.6-5.2,5.5-5.1,0.4-10.9c-1.7-1.9-2.7-1.9-4.8-0.4
			c-21.2,15.8-44.5,27.6-69.2,36.9c-20.1,7.5-41,11.9-61.6,17.6c-0.8,0.2-1.7,0.5-2.5,0.7C624.4,444.7,623.7,444.8,623.1,444.9z
			 M1173.9,494.8c-0.4-23.7-6.7-48.3-19.2-71.2c-11.4-21-27-38.2-46.3-52.1c-13.1-9.5-27.4-16.6-42.7-21.7c-0.8-0.3-2.1-0.6-2.6-0.2
			c-1.8,1.5-0.9,4.6,1.4,5.4c30.4,10.4,55.6,28.1,74.5,54.1c27.6,38,36.3,80.1,24.2,125.5c-11.1,41.7-36.6,72.7-74.4,93.4
			c-30.2,16.5-62.5,22.2-96.5,17.1c-25.3-3.8-48.5-13-69.2-28.1c-23-16.9-40.2-38.4-51.2-64.8c-5.8-13.9-9.3-28.3-10.4-43.3
			c-0.2-3-1.8-2.9-3.9-2.8c-2.9,0-1.9,2-1.8,3.4c1.5,13.6,4.2,27.1,9.1,39.9c22.7,59.4,78.8,100.7,144.8,102.6
			c20.6,0.6,40.7-2.4,60.3-9.4C1131.5,620.5,1173.1,562.6,1173.9,494.8z M638.5,437.2c0.5-0.1,1.2-0.3,1.9-0.4
			c9.6-2.5,19.3-4.8,28.9-7.6c31.6-9.2,60.9-23.3,87.4-42.9c0.8-0.6,1.7-1.4,2.1-2.4c2.1-4.6,5.7-7.2,10.4-8.8
			c1.1-0.4,2.3-1,3.1-1.7c21.7-19.5,39.8-41.9,52.6-68.1c7.7-15.8,14-32.3,20.9-48.5c1.8-4.2,1.6-4.6-2.3-6.8
			c-1.1-0.6-2.2-1-3.4-1.5c-2.1-0.7-3.3-0.1-4.2,2.1c-3.5,9.2-7.2,18.3-10.9,27.5c-22.8,56.4-61.9,97.5-116.6,123.9
			c-23,11.1-47.2,18.4-72,24c-3.2,0.7-4.3,2.1-3.9,5C633,433.8,636.1,437.2,638.5,437.2z M870.8,319.4c-0.1-1.2-0.2-2.5-0.4-3.7
			c-0.1-0.7-0.4-1.4-0.8-2c-1.9-3-3.9-2.9-7.2,0.1c-22.9,20.9-45.7,41.8-68.5,62.8c-5.3,4.9-11,9.4-15.2,15.5
			c-1.5,2.2-4.3,3.5-6.6,5.2c-1.2,0.9-2.5,1.6-3.6,2.5c-12.3,11.3-24.5,22.6-36.8,33.8c-14.6,13.4-29.2,26.9-43.9,40.2
			c-1.7,1.5-2,2.4-0.1,3.9c1.9,1.5,3.7,3.3,5.2,5.3c1.5,2,2.5,1.8,4.3,0.1c28.6-26.4,57.4-52.8,86.1-79.2c28-25.7,56-51.4,84.1-77
			C869.8,324.8,870.9,322.5,870.8,319.4z M874.5,295.2c-0.7-1.9-1.1-3.4-1.7-4.9c-2-4.7-4-9.3-6-13.9c-3.7-8.6-7.3-17.2-11-25.8
			c-0.3-0.7-0.9-1.4-1.3-2.1c-0.5,0.7-1.1,1.3-1.5,2c-1.9,4-3.8,8-5.5,12.1c-2.6,6.4-5,12.9-7.6,19.3
			c-14.2,34.9-34.1,65.8-62.1,91.4c-5,4.5-4.8,4.5-0.4,9.5c1.7,1.9,2.7,2.1,4.6,0.2c24.5-22.6,49.1-45,73.6-67.6
			c5.7-5.2,11-10.8,16.4-16.3C873.1,297.9,873.7,296.4,874.5,295.2z M1007.7,451.3c-0.3-1.1-0.6-2.6-1.1-3.9
			c-11-29.9-22.1-59.9-33.1-89.8c-0.6-1.7-1.3-2.1-2.9-1.4c-6,2.3-12,4.5-18,6.6c-2.4,0.8-2.8,1.9-1.8,4.3c3.7,9,7.1,18.1,10.7,27.2
			c8.1,20.6,16.3,41.3,24.4,61.9c0.5,1.2,1,2.6,2,3.5c4.9,4.2,9.8,8.2,14.9,12.2c0.3,0.2,1.6-0.2,1.6-0.5
			C1005.6,464.9,1006.6,458.3,1007.7,451.3z M1048.9,484.5c0-0.3-0.1-0.5-0.1-0.8c8.5,2,15.3-1.4,21.7-6.1c0.3-0.2,0.7-0.3,1-0.5
			c25-14.5,50.1-29,75.2-43.4c2-1.1,2.7-2.1,1.4-4.2c-3.2-5.1-6.4-10.2-9.5-15.4c-1.3-2.2-2.5-1.9-4.4-0.7
			c-26.8,16.1-53.7,32.1-80.5,48.1c-1.9,1.1-4.2,2.2-5.2,3.9c-3.4,5.5-6.4,11.4-9.5,17.1c-1,1.9,0,2,1.5,2
			C1043.3,484.4,1046.1,484.5,1048.9,484.5z M1063.5,494.1c-0.7,0.1-1.2,0-1.6,0.2c-6.2,2.3-12.5,4.6-18.7,6.9
			c-2,0.8-0.6,1.6,0.2,2.2c4.1,3.3,8.4,6.5,12.3,10.1c2.1,1.8,4.3,2.6,6.9,3c8,1.3,16.1,2.5,24,4c23.6,4.2,47.3,8.5,70.9,12.9
			c1.9,0.3,2.8-0.1,3.1-1.9c1.1-6.3,2.3-12.6,3.5-18.9c0.3-1.7-0.1-2.4-1.9-2.7c-8.2-1.2-16.3-2.4-24.5-3.7
			c-19.5-3.1-38.9-6.3-58.4-9.4C1074.1,495.7,1068.7,494.9,1063.5,494.1z M997.7,520.3c-0.5-0.1-1.2-0.7-1.8-0.5
			c-5.7,1.9-11.4,3.9-17,6.1c-1.5,0.6-3,1.8-4.1,3c-20.6,24.1-41.1,48.3-61.7,72.5c-1.4,1.6-1,2.5,0.3,3.6
			c4.8,3.8,9.7,7.6,14.4,11.5c1.7,1.4,2.7,1.1,4.1-0.6c5-6.4,10.2-12.7,15.4-19c15.1-18.1,30.1-36.2,45.2-54.4
			c0.8-0.9,1.6-2,1.8-3.1C995.6,533.3,996.5,527.2,997.7,520.3z M1033.6,518.5c-0.1,0.7-0.5,1.4-0.4,2c1.1,6.3,2.3,12.6,3.6,18.9
			c0.2,0.9,0.9,1.7,1.5,2.5c20.6,24.3,41.2,48.5,61.7,72.8c1.1,1.3,1.9,1.6,3.3,0.4c4.8-4,9.7-8,14.6-12c1.5-1.3,1.7-2.2,0.2-3.8
			c-18.9-21.7-37.8-43.3-56.4-65.2c-5.5-6.4-11.5-11.3-19.9-12.9c-2-0.4-4-1.3-6-2C1035.4,519.1,1034.8,518.9,1033.6,518.5z
			 M1028,593.3c-0.4,0-0.8,0-1.3,0c0-15.5,0-31.1,0-46.6c0-1.3-0.2-2.8-0.8-3.9c-3.1-5.4-6.3-10.6-9.4-15.9c-0.9-1.5-1.3-1.7-2.3,0
			c-3,5.4-6.2,10.6-9.2,16c-0.6,1.1-0.9,2.6-0.9,3.9c0.1,31.2,0.2,62.4,0.3,93.6c0,2.1,0.7,2.8,2.8,2.7c5.5-0.1,11.1,0,16.7,0
			c4.3-0.1,4.2-0.1,4.2-4.3C1028,623.7,1028,608.5,1028,593.3z M226.4,498.9c0.2,3.3,0.3,9.6,1.1,15.8c5,39.3,22.9,72,52.6,97.7
			c38.5,33.3,83.7,45.5,133.7,37c42.5-7.2,76.4-29.3,101.9-64.2c4.3-5.9,7.8-12.3,11.5-18.5c0.4-0.6,0.4-2,0-2.3
			c-1.9-1.4-4.4-0.7-5.5,1.3c-16.2,29.4-39.4,51.5-69.8,65.9c-28,13.3-57.5,18-88.2,13.3c-32.3-5-60.7-18.1-84.5-40.8
			c-30.5-29.1-46.5-64.7-47.2-106.9c-0.3-15.6,2.2-31,7.1-45.9c0.8-2.3,0.1-3.1-2.1-3.9c-2.6-0.9-2.5,0.8-3,2.2
			C228.8,464.7,226.5,480.1,226.4,498.9z M366.8,530.5c-0.4-0.4-1.1-1.4-2-2c-2.3-1.3-4.8-2.6-7.3-3.6c-1.3-0.5-3-0.6-4.4-0.5
			c-4.7,0.6-7.3,4.1-10.1,7.5c-19.5,22.9-39,45.9-58.6,68.7c-1.4,1.7-1.6,2.7,0.2,4.1c4.5,3.5,8.8,7.2,13.3,10.6
			c3.1,2.4,3.2,2.2,5.7-0.8c19.1-23,37.9-46.1,57.3-68.8C364.7,541.3,365.7,536.6,366.8,530.5z M398.6,593.1c-0.3,0-0.6,0-0.8,0
			c0-13.6-0.2-27.1,0.1-40.7c0.1-5.7-0.8-10.7-4.4-15.1c-1-1.2-2.5-2.4-3.9-2.8c-7.5-2-7.4-1.8-11.5,4.7c-2.3,3.6-3.2,7.2-3.1,11.5
			c0.2,16.9,0.2,33.8,0.2,50.7c0,12.8,0.2,25.7,0.1,38.5c0,2.5,0.8,3.5,3.4,3.4c5.5-0.2,11.1-0.1,16.6-0.1c2.4,0,3.5-0.6,3.5-3.4
			C398.5,624.2,398.6,608.6,398.6,593.1z M336.2,495.6c-2.2,0.4-5.3,1-8.5,1.5c-29.6,5-59.2,10-88.8,14.9c-2,0.3-3.1,1-2.6,3.4
			c1.3,5.9,2.5,11.8,3.7,17.7c0.4,2,1.1,2.7,3.5,2.3c27.6-5.2,55.2-10.2,82.8-15.2c4.6-0.8,9.2-1.5,13.8-2.4c4.7-1,6-3.6,4.5-8
			c-1.1-3.1-1.9-6.4-2.4-9.6C341.7,496.4,341.1,495.6,336.2,495.6z M979,485.7c3,0,5.9,0,8.9,0c0.6,0,1.1-0.2,1.7-0.4
			c-0.3-0.5-0.5-1-0.9-1.4c-0.8-0.8-1.6-1.5-2.5-2.2c-10.4-9.7-20.7-19.4-31.1-29c-0.8-0.8-1.6-1.5-2.6-2.1
			c-20.3-11.7-40.6-23.4-60.8-35.1c-1.9-1.1-2.8-0.7-3.7,1c-2.8,5-5.7,10.1-8.7,15c-1.2,2.1-1.1,3.2,1.3,4.6
			c26.5,14.7,52.9,29.5,79.3,44.5C965.9,483.9,971.9,486.8,979,485.7z M390.9,449.8c0.7,3.9,1.3,7.7,2.2,11.4
			c0.3,1.1,1.2,2.1,1.8,3.1c1.1-0.6,2.4-1,3.1-1.9c3.7-4.9,7.3-9.9,10.9-14.9c7.4-10.5,15.5-20.5,19.6-33.2
			c5.4-16.5,12-32.6,18.2-48.8c0.8-2.1,0.7-3-1.6-3.7c-5.6-1.8-11.1-4-16.7-5.9c-3.9-1.3-3.9-1.2-5.3,2.8
			c-10.5,29.5-20.9,59-31.3,88.5C391.4,448,391.2,449,390.9,449.8z M945.5,505.3c0,0.1,0,0.2,0,0.4c-11.5,0-22.9,0-34.4,0
			c-2.5,0-4.9,0.2-7.4,0.6c-12,2.1-24,4.4-36,6.3c-2.4,0.4-2.9,1.3-2.4,3.4c1.2,5.7,2.5,11.3,3.6,17c0.5,2.5,1.6,3,4.1,2.5
			c8.9-1.8,17.9-3.4,26.8-5c23.1-4.2,46.2-8.5,69.3-12.8c1.4-0.3,2.8-1,3.9-1.9c3.5-2.7,6.9-5.6,10.3-8.5c0.5-0.5,1-1,1.5-1.6
			c-0.8-0.2-1.6-0.5-2.3-0.5C970.2,505.3,957.8,505.3,945.5,505.3z M905.2,326.7c-6.9,0.2-10,4.7-7.3,10.9
			c10.2,22.9,20.4,45.9,31,68.7c7.6,16.2,16.4,32,29.3,44.6c15.4,15,31.5,29.1,47.3,43.7c1.8,1.7,3.4,1.5,4.6-0.4
			c1.1-1.7,2.4-3.3,0-5.4c-8.9-8-17.7-16.1-26.5-24.2c-17.4-15.9-31.7-34.1-40.8-56.1c-4.5-10.9-9.3-21.7-14-32.6
			c-6.5-15.3-13-30.6-19.5-45.9C908.6,328,907.7,326,905.2,326.7z M260.9,413.7c-0.2,0.5-0.5,1.1-0.8,1.6c-3.2,5.7-6.5,11.3-9.8,17
			c-0.7,1.2-0.4,2,0.8,2.6c2.9,1.6,5.8,3.3,8.7,4.9c16.4,9,32,19.5,50.3,24.4c3.8,1,7.4,2.5,11.2,3.8c8.5,2.9,17,5.8,25.5,8.7
			c2.2,0.8,7.7-2.9,6.9-4.7c-1.3-2.9-2.1-6.3-5.3-8.1c-8.1-4.5-16.1-9.1-24.1-13.7c-20.2-11.6-40.4-23.2-60.6-34.8
			C263,415,262.3,414.6,260.9,413.7z M409.8,539.3c-0.4,0.1-1,0.1-1.6,0.2c0.4,0.8,0.6,1.8,1.2,2.5c20.4,24.1,40.9,48.2,61.3,72.3
			c1.2,1.4,2.1,1.9,3.6,0.6c4.7-4,9.4-7.9,14.2-11.8c1.8-1.5,1.5-2.5,0.1-4.2c-12.8-14.7-25.6-29.4-38-44.4
			c-4.4-5.3-9.2-8.6-16.1-9.7C426.2,543.4,418.1,541.2,409.8,539.3z M822.7,494.8c0,18.5,2.7,36.6,8,54.4c0.4,1.4,1,2.6,1.6,3.9
			c1-1.1,1.9-2.2,2.9-3.3c2.9-3.2,3.2-6.5,2.2-10.8c-2.1-9.2-3.9-18.6-4.8-28c-3.2-34.9,3.5-68,20.2-98.9
			c11.5-21.2,27.1-39,46.1-53.8c2.7-2.1,2.7-3.6,1.4-6.4c-2.3-4.6-2.1-4.7-6.2-1.4C847.7,387.4,823.8,435.5,822.7,494.8z
			 M608.5,421.5c-0.8-2.1-1.6-3.9-2.3-5.7c-12.2-28.3-24.4-56.6-36.7-84.8c-6.2-14.4-12.4-28.7-18.7-43.1c-0.3-0.8-1.6-2-2-1.8
			c-3,1.1-5.9,2.4-8.7,3.9c-1.6,0.9-1.7,2.2-0.9,4.1c18.3,42.3,36.6,84.6,54.9,126.9c3.4,7.9,3.7,8,11.1,3.5
			c0.7-0.4,1.5-0.8,2.2-1.4C607.9,422.6,608.2,422,608.5,421.5z M445,463.8c0-0.2,0-0.4,0-0.6c6.7,0,13.3,0.1,20,0
			c1.5,0,3.3-0.3,4.6-1c16.5-9.4,32.9-18.9,49.4-28.2c1.7-1,2-1.9,1-3.5c-3.2-5.3-6.4-10.5-9.5-15.9c-1.2-2-2.2-2-4.1-0.8
			c-12.8,7.6-25.7,15.1-38.5,22.7c-14.6,8.6-29.1,17.1-43.6,25.7c-0.5,0.3-0.9,0.9-1.3,1.4c0.6,0.1,1.2,0.3,1.7,0.3
			C431.4,463.8,438.2,463.8,445,463.8z M915,312.9c-0.1-0.9-0.2-1.4-0.3-1.8c-3.7-13.9-7.3-27.9-11-41.8c-1.1-4-2.4-8-3.7-12
			c-5.6-18.5-11.2-37-16.8-55.5c-0.7-2.2-1.5-2.7-3.7-1.8c-3.7,1.5-7.4,2.7-11.2,3.9c-2.4,0.8-4.6,1.3-3.4,4.8
			c0.6,1.7-0.5,4,0.2,5.6c13.3,31.4,26.7,62.8,40.1,94.2c0.6,1.4,1.7,2.6,2.8,3.6c2.6,2.2,3.2,4,1.9,7.4c-0.2,0.7-0.6,1.6-0.3,2
			c0.5,0.8,1.5,1.7,2.2,1.7c1.9,0,0.8-1.4,0.5-2.1c-1.1-2.5-0.5-4.5,1.3-6.4C914.3,314.1,914.7,313.3,915,312.9z M840.6,490.4
			c-0.1,7.7-0.1,7.7,7.4,7.6c0.2,0,0.5,0,0.7,0c4.5,0,3.9,0.3,4-4c0.6-24.2,5.9-47.4,17.1-69c9.6-18.6,22.5-34.7,38.7-48
			c1.8-1.5,2.1-2.6,1-4.6c-1.2-2.1-2.1-4.5-3-6.8c-0.6-1.6-1.3-1.7-2.6-0.6c-2.8,2.5-5.7,4.8-8.4,7.3
			C860.6,404,843.1,443.7,840.6,490.4z M328.4,347.9c-0.8-2.9-1.5-5.1-2.1-7.4c-1.1-3.5-1.1-3.6-4.4-2.2
			c-43.1,17.2-75.2,46.2-95,88.4c-1.2,2.5-2,5.2-3,7.8c2.6,1,5.4,1.8,7.9,3c2.6,1.2,3.5,0.4,4.6-2.1c9.1-21.5,22.3-39.9,39.8-55.4
			c14.8-13.1,31.4-23.4,49.8-30.5C326.9,349.1,327.7,348.3,328.4,347.9z M1013.8,326.2c-8,0.7-16,1-23.9,2
			c-20.8,2.7-40.6,8.9-59.1,19c-2.8,1.5-6.7,2.8-7.6,5.2c-0.8,2.1,1.9,5.5,3,8.4c0.7,1.9,1.5,2.5,3.4,1.2c2.7-1.8,5.5-3.3,8.3-4.8
			c34.8-18,71.4-22.8,109.8-15c4,0.8,4,0.8,5-3c0.5-1.8,0.8-3.6,1.4-5.4c0.8-2.1-0.2-2.9-2.1-3.2
			C1039.4,328.3,1026.7,326.3,1013.8,326.2z M399,478.4c0.5-0.6,1.2-1.3,1.7-2c9.3-13.1,18.6-26.1,27.9-39.2
			c26.8-37.3,53.6-74.5,80.4-111.8c6.7-9.3,13.4-18.7,20-28c0.5-0.6,1.1-2,0.9-2.1c-1.4-1.2-2.9-2.4-4.6-3c-0.5-0.2-1.8,1.3-2.5,2.2
			c-19.8,27.6-39.6,55.1-59.3,82.7c-15.8,22.1-31.7,44.1-47.5,66.2c-7.1,9.8-14.2,19.6-21.2,29.4c-0.5,0.6-1.1,1.9-0.9,2.1
			C395.4,476.1,397.1,477.1,399,478.4z M582,521c2,0.6,2.8-0.6,2.7-3c-0.1-1,0.2-2,0.4-2.9c0.4-2.2-0.2-3-2.6-3.2
			c-11.4-0.9-22.8-2-34.3-3c-22.7-2.1-45.4-4.4-68.1-6.4c-20.8-1.9-41.5-3.6-62.3-5.4c-4.4-0.4-4.4-0.4-4.8,3.8
			c0,0.6-0.1,1.2-0.3,1.8c-0.4,1.6,0.3,1.8,1.7,2c7.7,0.7,15.5,1.5,23.2,2.2c11.8,1.1,23.6,2.1,35.4,3.3c13.6,1.3,27.2,2.8,40.8,4.2
			c10.9,1.1,21.8,2.3,32.7,3.4C558.2,518.8,569.9,519.8,582,521z M276.6,487.6c0-0.4,0-0.8,0-1.2c-12.6,0-25.2,0.1-37.8-0.1
			c-2.8,0-3.6,0.8-3.5,3.5c0.2,5.7,0.2,11.3,0.2,17c0,2.7,1.2,3.3,3.7,2.9c5.4-1,10.9-1.9,16.4-2.8c25.1-4.2,50.3-8.4,75.4-12.7
			c0.4-0.1,0.8-0.3,1.3-0.4c-0.4-0.4-0.8-0.9-1.3-1c-4.5-1.7-9-3.3-13.6-4.8c-0.8-0.3-1.7-0.3-2.5-0.3
			C302,487.6,289.3,487.6,276.6,487.6z M1074.9,483.8c0,0.1,0,0.2,0.1,0.3c3.9-0.5,8-0.4,11.6-1.7c23.4-8.3,46.7-16.9,70-25.3
			c1.7-0.6,2.4-1.4,1.6-3.2c-2.2-5.5-4.2-11-6.4-16.5c-1.3-3.3-1.5-3.2-4.5-1.4c-19.2,11.1-38.3,22.3-57.5,33.4
			c-7.3,4.3-14.7,8.5-22,12.8c-0.5,0.3-1,0.7-1.4,1.1c0.6,0.2,1.3,0.5,1.9,0.5C1070.5,483.8,1072.7,483.8,1074.9,483.8z
			 M1165.2,496.4c-0.2-3.2-0.3-5.7-0.5-8.2c-0.3-3.7-0.3-3.8-4-3.7c-21.8,0.4-43.6,1.2-65.5,1.1c-8.9,0-17,2.3-25,5.5
			c-0.5,0.2-1,0.6-1.5,0.9c0.6,0.3,1.2,0.6,1.8,0.7c15.2,2.5,30.4,4.9,45.6,7.3c15.2,2.4,30.4,4.8,45.5,7.3c2.3,0.4,3.1-0.3,3.1-2.6
			C1164.8,501.7,1165.1,498.7,1165.2,496.4z M277.9,394.2c-0.7,0.6-1.4,1.2-1.9,1.8c-3.8,4.4-7.5,8.9-11.3,13.2
			c-1.9,2.1-1.9,3,0.8,4.5c17.7,10,35.2,20.2,52.9,30.3c8.5,4.9,17.1,9.8,25.6,14.7c0.8,0.4,1.7,0.6,2.5,0.9c-0.3-0.8-0.6-1.5-1-2.3
			c-1.3-2.3-2.7-4.4-3.9-6.7c-2.4-4.7-5.7-8.5-10-11.7c-3.8-2.8-7.3-5.8-10.9-8.8c-13.7-11.5-27.3-23-41-34.5
			C279.2,395.2,278.6,394.7,277.9,394.2z M1097.6,375.2c-0.6-0.5-1.1-1.2-1.7-1.5c-5.1-2.9-10.4-5.6-15.5-8.7
			c-2.7-1.7-3.4-0.6-4.3,1.9c-10.3,28-20.6,55.9-30.9,83.8c-0.3,0.7-0.6,1.4-0.7,2.1c-0.1,0.3,0.1,0.6,0.2,0.9
			c0.2-0.1,0.5-0.2,0.6-0.3c5.7-5,12.3-9,16.2-15.9c11.5-20.2,23.3-40.3,35-60.4C1096.9,376.5,1097.2,376,1097.6,375.2z
			 M952.7,485.5c3.3,0,5.7,0,8,0c0.5,0,0.9-0.2,1.4-0.3c-0.4-0.4-0.7-0.9-1.1-1.2c-0.4-0.3-0.8-0.5-1.3-0.7
			c-26.9-15.1-53.8-30.1-80.6-45.3c-2.1-1.2-2.8-0.4-3.4,1.4c-1.8,5.2-3.6,10.5-5.6,15.6c-1.1,2.7-0.4,3.7,2.3,4.7
			c20.4,7,40.7,14.2,61,21.3C940,483.2,946.3,486.7,952.7,485.5z M965,520.9c-0.8,0.2-1.4,0.3-2,0.4c-7.3,1.3-14.5,2.7-21.8,4
			c-22.7,4.2-45.5,8.4-68.2,12.6c-2.1,0.4-2.4,1.2-1.7,3c2.3,5.7,4.6,11.4,6.8,17.1c0.7,1.9,1.5,2,3.3,1.3
			c18.8-7.2,37.7-14.4,56.6-21.3c10-3.6,19.6-7.8,27.2-15.6c0.3-0.3,0.6-0.7,0.9-1.1C965.7,521.1,965.3,521,965,520.9z M214.6,431.5
			c0.5-1,1.2-2.1,1.7-3.2c10-23.4,24.1-44,42.9-61.4c17.2-15.9,36.8-28.1,58.6-36.5c5.5-2.1,5.4-2.1,3.3-7.7
			c-0.9-2.4-1.9-2.4-4.1-1.6c-30,11.6-56,28.8-77.3,53c-4,4.5-8.1,9.1-11.2,14.2c-6.9,11.5-13.1,23.4-19.6,35.1
			c-0.7,1.2-1.3,2.4-1.7,3.7c-0.2,0.5-0.1,1.7,0.2,1.8C209.6,429.8,211.8,430.5,214.6,431.5z M335.6,520.8c-0.8,0.2-1.5,0.4-2.3,0.5
			c-12.6,2.3-25.2,4.6-37.7,7c-17.1,3.2-34.1,6.4-51.2,9.4c-2.5,0.4-2.7,1.2-1.9,3.3c2.2,5.5,4.4,11,6.5,16.5
			c0.8,2.1,1.8,2.3,3.9,1.5c21-8,42-16.3,63.2-23.7c7.9-2.8,13.8-7.9,19.9-12.9c0.3-0.3,0.5-0.8,0.8-1.1
			C336.4,521,336,520.9,335.6,520.8z M1011.7,427.3c-0.4-2.2-0.9-4.4-1.2-6.6c-4-22.6-7.9-45.1-11.9-67.7c-0.3-1.6-0.7-2.4-2.6-2.1
			c-6.4,1.2-12.8,2.3-19.2,3.4c-1.8,0.3-1.6,1.3-1.1,2.6c8.8,23.4,17.5,46.8,26.2,70.2c2,5.3,3.9,10.6,5.9,15.9
			c0.2,0.4,0.6,0.7,0.9,1.1c0.1-0.3,0.3-0.6,0.3-1C1009.9,438,1010.8,432.7,1011.7,427.3z M1052.4,459.4c0.7-0.4,1-0.6,1.3-0.7
			c1.7-1,3.4-2.1,5-3.1c24.7-14.8,49.4-29.5,74.2-44.2c2-1.2,2.3-2.1,0.7-3.8c-3.9-4.3-7.7-8.6-11.5-13c-1.6-1.8-2.6-1.7-4.4-0.1
			c-18,15.7-36.1,31.4-54.2,47c-5.3,4.6-7.6,11.1-11.1,16.8C1052.4,458.4,1052.5,458.8,1052.4,459.4z M970.6,528.5
			c-1.3,0.4-2.4,0.8-3.6,1.3c-4.5,1.9-9.8,2.8-13.4,5.8c-19.4,15.4-38.4,31.3-57.6,46.9c-1.5,1.3-1.6,2.1-0.4,3.5
			c3.7,4.1,7.3,8.3,11.1,12.3c3.1,3.2,3.1,3.1,6-0.2c15.2-18,30.4-35.9,45.6-53.9c4.1-4.8,8.1-9.6,12.1-14.5
			c0.3-0.3,0.5-0.8,0.7-1.2C970.9,528.6,970.7,528.5,970.6,528.5z M341.1,528.6c-0.2,0.1-0.4,0.2-0.6,0.3
			c-8.4,2.6-16.6,5.4-22.8,12.1c-1.2,1.3-2.6,2.2-4,3.3c-15.5,12.6-30.9,25.3-46.4,37.8c-1.7,1.4-2,2.4-0.5,4.1
			c4,4.2,7.9,8.5,11.7,12.8c1.6,1.8,2.6,1.8,4.2-0.2c16.4-19.5,33-38.9,49.5-58.3c3-3.6,6-7.2,9-10.8c0.3-0.3,0.3-0.8,0.5-1.2
			C341.6,528.6,341.4,528.6,341.1,528.6z M1014.4,426.9c0.9,4.9,1.7,9.8,2.6,14.8c0.1,0.8,0.5,1.5,0.8,2.3c0.4-0.7,0.9-1.3,1.2-2.1
			c5.8-16.8,11.6-33.5,17.4-50.3c3.9-11.3,7.7-22.6,11.5-33.9c1.2-3.5,1.1-3.6-2.4-4.3c-4.8-0.9-9.7-1.7-14.6-2.4
			c-4.1-0.7-4.1-0.6-4.8,3.6c-3,18.2-6,36.5-9,54.7C1016.2,415,1015.3,420.9,1014.4,426.9z M1121.6,599.5c0.7-0.7,1.2-1,1.6-1.5
			c3.7-4.3,7.6-8.4,11.2-12.8c2.6-3.1,2.4-3.2-0.7-5.7c-18.2-14.7-36.5-29.4-54.6-44.2c-5.4-4.4-12.1-5.3-18.2-7.7
			c-0.3-0.1-0.7,0.1-1,0.1c0.2,0.3,0.3,0.7,0.5,1c0.4,0.5,0.8,0.9,1.2,1.4c11.1,12.7,22.2,25.5,33.2,38.2
			c8.3,9.6,16.6,19.2,24.9,28.8C1120.3,597.9,1120.9,598.7,1121.6,599.5z M354,453.1c-0.4-1.1-0.7-1.8-0.9-2.5
			c-2.9-7.2-5.8-14.4-8.6-21.6c-7.9-20.3-15.7-40.7-23.5-61c-1.3-3.4-1.4-3.5-4.5-1.9c-4.8,2.6-9.4,5.4-14.1,8.1
			c-1.9,1.1-2.5,1.9-1.1,4.2c11.9,19.7,23.7,39.5,35.3,59.4c3.9,6.7,10.4,10.4,16,15.1C352.9,453,353.4,453,354,453.1z M507.2,410.2
			c-0.5-0.8-0.9-1.4-1.4-2c-3.9-4.5-7.8-8.9-11.6-13.5c-1.4-1.7-2.3-1.6-4-0.2c-15.8,13.6-31.5,27.3-47.7,40.5
			c-7.2,5.9-12.8,12.9-17,21.1c-0.4,0.7-0.5,1.5-0.7,2.3c0.8-0.3,1.6-0.5,2.3-0.9c26.1-15.4,52.3-30.7,78.4-46.1
			C506.1,411.1,506.6,410.6,507.2,410.2z M408.9,547.1c1.8,7,1.4,14.7,5.9,21c2.4,3.3,4.3,6.9,6.3,10.5
			c9.2,15.9,18.3,31.8,27.4,47.8c1.1,2,2,2.6,4.2,1.3c4.8-2.9,9.8-5.7,14.8-8.3c2.3-1.2,2.7-2.2,0.8-4.3
			c-17.8-20.8-35.5-41.7-53.3-62.6c-1.7-2-3.3-4-5-5.9c-0.2-0.3-0.6-0.3-0.9-0.5C409.1,546.4,409,546.7,408.9,547.1z M1038.5,547.7
			c0.4,7.8,2.9,15.6,6.6,22c2,3.4,4,6.8,6,10.2c8.9,15.5,17.9,30.9,26.7,46.5c1.4,2.4,2.3,2.8,4.7,1.3c4.5-2.8,9.2-5.2,13.8-7.8
			c3.4-1.9,3.4-2.1,1-4.9c-19.1-22.5-38.2-44.9-57.3-67.3c-0.4-0.4-0.9-0.8-1.3-1.2C1038.6,547,1038.5,547.5,1038.5,547.7z
			 M993,547.4c0-0.2-0.1-0.6-0.1-1c-0.5,0.4-1,0.7-1.3,1.2c-7.2,8.6-14.3,17.3-21.5,25.9c-12,14.5-23.9,28.9-35.9,43.3
			c-1.5,1.8-1.7,2.9,0.6,4.1c4.8,2.4,9.5,5.2,14.3,7.7c3.6,1.8,3.6,1.7,5.5-1.7c11.5-20.6,23-41.1,34.5-61.7
			c0.6-1.2,1.2-2.4,1.4-3.7C991.5,556.9,992.2,552.3,993,547.4z M400,595c0.3,0,0.7,0,1,0c0,14.7,0,29.4,0,44.1
			c0,3.5,0.3,3.7,3.5,3.1c5.5-1,10.9-2.1,16.3-3c2.3-0.4,2.9-1.3,2.4-3.7c-4.2-21.6-8.3-43.3-12.5-65c-0.6-2.9-1.2-5.8-2.5-8.4
			c-1.8-3.8-4.2-7.3-6.4-10.8c-0.4-0.7-1-1.3-1.6-1.9c-0.1,0.8-0.4,1.6-0.4,2.4C400,566.1,400,580.6,400,595z M363.7,548.7
			c-0.1-0.3-0.2-0.9-0.3-1.5c-0.5,0.3-1,0.5-1.4,0.9c-0.5,0.5-1,1.1-1.4,1.7c-8,9.6-16,19.1-24,28.7c-10.5,12.7-21,25.5-31.6,38.2
			c-1.6,1.9-1.2,2.8,0.7,3.9c5,2.7,10,5.3,15,8.1c2.2,1.3,3.2,0.9,4.5-1.4c10.8-19.4,21.4-38.9,32.7-58
			C361.6,562.9,362.3,556,363.7,548.7z M386.9,425.2c0.9,5.5,1.8,11.1,2.7,16.7c0.1,0.3,0.3,0.6,0.4,0.9c0.3-0.3,0.7-0.6,0.9-1
			c1.5-4.3,3-8.6,4.5-12.9c8.4-23.8,16.9-47.6,25.4-71.4c1.1-3.2,1.1-3.3-2.4-4c-4.7-0.9-9.5-1.6-14.2-2.4c-5.5-0.9-4.9-1.2-5.8,4.4
			c-2.1,13-4.3,26-6.4,39C390.3,404.7,388.6,414.9,386.9,425.2z M1032.7,642.7c5.6-1.1,11.1-2.1,16.7-3.2c3.9-0.8,3.9-0.8,3.1-4.7
			c-3.9-20-7.8-39.9-11.8-59.8c-0.9-4.5-1.9-9.2-3.7-13.4c-1.6-3.8-4.2-7.2-6.4-10.8c-0.3-0.5-0.8-0.8-1.2-1.2
			c0,0.6-0.1,1.2-0.1,1.8c0.1,8.5,0.2,17,0.3,25.5c0.3,20.8,0.5,41.7,0.8,62.5C1030.4,640.8,1029.9,642.9,1032.7,642.7z
			 M860.6,213.4c-0.6,0.3-1,0.4-1.3,0.5c-4,1.7-8,3.3-11.9,5c-0.5,0.2-0.8,0.7-1.3,1.1c0.5,0.4,0.9,0.8,1.4,1.1
			c8.6,5.2,12.5,13.9,10.7,23.9c-0.2,0.9-0.1,1.9,0.3,2.8c5.8,13.8,11.7,27.7,17.5,41.5c0.7,1.7,1.8,2.7,3.6,3.3
			c4.8,1.6,7.8,5,9.2,9.8c1.3,4.5,1.3,9-0.6,13.4c-0.3,0.7-0.1,1.6-0.1,2.4c0.8,0,1.6,0.2,2.3,0c3.6-1.3,7.1-2.9,10.7-4.2
			c2-0.7,2.3-1.6,1.4-3.5c-4.3-9.9-8.4-20-12.8-29.9c-0.5-1.2-1.8-2.2-3-2.8c-10.2-4.6-17.1-20.7-13.4-31.2c0.4-1.2,0.5-2.9,0-4.1
			c-3.7-9.2-7.7-18.4-11.6-27.6C861.5,214.3,861,213.9,860.6,213.4z M1002.1,596c-0.2,0-0.3,0-0.5,0c0-13.6,0-27.1,0-40.7
			c0-1.6-0.4-3.2-0.5-4.9c-0.9,1.3-1.8,2.6-2.6,3.9c-3.4,5.5-6.3,11-7,17.6c-0.8,7.1-2.4,14.1-3.7,21.1c-2.7,14.7-5.3,29.3-8.1,44
			c-0.3,1.6,0.1,2.2,1.7,2.4c5.7,0.9,11.4,2,17.1,2.8c3.6,0.5,3.7,0.3,3.7-3.4C1002.1,624.7,1002.1,610.3,1002.1,596z M549.2,462.4
			c0.7,0,1.5,0,2.2,0c4.1-0.1,4.5,0.9,3.5-4.1c-3.6-16.3-9.6-31.6-18-45.9c-9.3-16-20.6-30.4-34.8-42.4c-1.4-1.2-2.3-1.6-3.3,0.3
			c-0.3,0.5-0.7,1-1.1,1.5c-1.4,2.1-4.1,4.4-3.9,6.4c0.2,2,3.3,3.7,5.1,5.5c21.3,20.3,35.8,44.8,43.3,73.2
			C543.6,462.3,543.5,462.4,549.2,462.4z M372.7,596c-0.1,0-0.1,0-0.2,0c0-13.3,0-26.6,0-40c0-1.9-0.2-3.8-0.3-5.7
			c-1.1,1.6-2.3,3.1-3.2,4.8c-2.1,4.2-4.7,8.2-5.8,12.6c-2.2,9.2-3.4,18.7-5.1,28c-2.5,13.6-5,27.1-7.6,40.7c-0.4,2,0,2.9,2.2,3.2
			c5.2,0.7,10.4,1.9,15.6,2.7c4.3,0.7,4.4,0.5,4.4-3.7C372.7,624.3,372.7,610.1,372.7,596z M947.2,365.3c-0.8,0.4-1.4,0.6-1.9,0.9
			c-3.6,2-7.1,4-10.7,5.9c-2.3,1.2-2.7,2.3-1.7,4.9c6.7,17.6,15.4,34,25.2,50.1c5.9,9.8,12.2,19.1,21.6,25.8c0.7,0.5,1.5,1,2.3,1.5
			c-0.2-0.9-0.4-1.9-0.7-2.8c-2.9-7.3-5.9-14.6-8.8-22c-8.1-20.8-16.2-41.5-24.2-62.3C948.1,366.7,947.6,366,947.2,365.3z
			 M394.2,326.8c-6.8-0.1-6.8-0.1-6.9,6.7c0,0.9,0.1,1.7,0,2.6c-0.2,1.9,0.6,2.5,2.5,2.6c6.1,0.4,12.3,0.7,18.4,1.5
			c20.4,2.5,39.4,9.3,57.5,19c4.7,2.5,4.6,2.6,7.7-1.7c4.1-5.6,4.1-5.7-2.1-9C447.3,335.5,421.6,328,394.2,326.8z M918.1,321.9
			c5.6-1.6,10.6-2.9,15.6-4.3c48.3-13.9,96.7-27.9,145-41.9c2.1-0.6,4.6-1,4.2-4.1c-0.3-2-2.6-2.6-5.9-1.7c-0.1,0-0.2,0.1-0.4,0.1
			c-18.3,5.3-36.6,10.6-55,15.9c-31.6,9.1-63.1,18.2-94.7,27.2c-3.2,0.9-6.4,1.9-9.5,2.9c-1.6,0.5-2.5,1.9-1.8,3.5
			C916.2,320.6,917.4,321.3,918.1,321.9z M507.1,582.2c-0.6-0.6-1.1-1.3-1.7-1.8c-10.6-8.6-21.3-17.2-32-25.8
			c-1-0.8-2.3-1.5-3.6-1.8c-6.3-1.5-12.7-2.9-19.1-4.3c-0.6-0.1-1.2,0-1.8,0c0.2,0.5,0.4,1.1,0.7,1.5c1.4,1.6,2.8,3.1,4.2,4.7
			c12.2,14.2,24.5,28.4,36.7,42.7c1.3,1.5,2.1,2.1,3.6,0.3c3.8-4.5,7.7-8.9,11.6-13.4C506.2,583.7,506.5,583,507.1,582.2z
			 M1034.3,462.8c0.3,0.1,0.6,0.2,0.9,0.3c1.8-2.3,4.2-4.3,5.2-6.9c5.3-13.8,10.3-27.7,15.4-41.5c6.1-16.5,12.2-33,18.5-49.5
			c0.8-2.1,0.4-2.8-1.5-3.5c-2.9-1-5.8-2-8.6-3.3c-2.6-1.2-3.5-0.5-4.1,2.2c-7.2,28.5-14.6,57-21.9,85.5c-1.3,5-2.5,10-3.8,15
			C1034.2,461.6,1034.3,462.2,1034.3,462.8z M877.4,154.1c-2.9,0.4-4.1,1.4-3.9,3.5c0.1,1,0.5,1.9,0.8,2.9
			c10.3,33.7,20.7,67.3,30.7,101.1c4.5,15.3,8.3,30.9,12.4,46.3c1.2,4.4,1.3,4.3,5.9,3.3c2.6-0.5,3.5-1.3,2.5-4.1
			c-3.4-9.9-6.7-19.8-9.8-29.8c-8.4-27.6-16.6-55.2-24.9-82.7c-3.7-12.4-7.4-24.8-11.3-37.1C879.4,156.1,878,155,877.4,154.1z
			 M905,487.6c0-0.3,0-0.6,0-0.8c-11,0-21.9,0-32.9,0c-7.8,0-7.7,0-8,8c-0.1,2.7,0.8,3.3,3.3,3.2c16.3-0.2,32.5-0.1,48.8-0.3
			c13.4-0.2,26.9,0.4,40.1-2.7c1.7-0.4,3.5-0.8,5.2-1.1c-1.7-0.7-3.4-1.3-5-2.1c-8.1-3.9-16.7-4.6-25.6-4.3
			C922.2,487.8,913.6,487.6,905,487.6z M1018.8,310.1c-0.7-0.1-1.5-0.5-2.2-0.4c-9.3,0.5-18.7,0.5-28,1.6
			c-24.2,2.8-47,10.3-68.4,22.1c-4.4,2.5-4.4,2.5-2.5,7.3c1.4,3.6,1.4,3.6,4.7,1.7c15.9-9.1,32.9-15.6,50.8-19.4
			c12.3-2.6,24.8-4.1,37.3-4.7C1012.9,318.2,1018.4,312.9,1018.8,310.1z M394.8,309.1c-7-0.2-7-0.2-7.2,5.2c0,0.1,0,0.2,0,0.4
			c-0.5,2.5,0.3,3.4,3.1,3.4c5.8,0.2,11.6,0.6,17.3,1.3c24.5,2.8,47.5,10.5,69,22.5c5.6,3.1,5.4,3,9.2-2c1.5-2.1,0.9-2.9-1-3.8
			c-3.3-1.7-6.5-3.5-9.8-5.2C449.7,317.4,422.2,310.5,394.8,309.1z M947.5,443.7c-0.3-0.4-0.6-0.7-0.9-1.2
			c-5.2-8.2-10.3-16.5-15.6-24.7c-1.3-2-2.4-4.1-4.2-5.6c-6.2-5.5-12.6-10.7-18.9-16.1c-1.5-1.3-2.6-1.3-3.9,0.3
			c-3.7,4.5-7.4,8.9-11.2,13.3c-1.7,1.9-1.5,2.8,0.7,4c11.6,6.5,23.1,13.2,34.6,19.9c6,3.4,12,6.9,18,10.3c0.4,0.2,0.9,0.3,1.3,0.4
			C947.5,444.1,947.5,443.9,947.5,443.7z M901.1,484.4c0,0.3,0,0.6,0,0.9c11.1,0,22.2,0,33.3,0c0.5,0,1.1-0.2,1.6-0.3
			c-0.5-0.3-0.9-0.7-1.5-0.9c-4.6-1.7-9.3-3.3-13.9-4.9c-16.2-5.7-32.5-11.5-48.7-17.2c-3.5-1.2-3.6-1.2-4.2,2.3
			c-1,5.6-1.7,11.2-2.7,16.8c-0.6,3,0.6,3.6,3.3,3.5C879.2,484.4,890.2,484.4,901.1,484.4z M934,232.6c1.3-0.4,2.2-0.6,3-0.9
			c25.6-7.4,51.3-14.8,76.9-22.2c16-4.6,31.9-9.2,47.9-13.8c0.9-0.3,2.5-0.9,2.4-1.2c-0.2-1.7-0.6-3.5-1.4-4.9
			c-0.3-0.5-2.2-0.2-3.3,0.1c-41.4,11.9-82.7,23.9-124.1,35.8c-3.8,1.1-3.8,1.1-2.4,5C933.2,231.3,933.6,232,934,232.6z
			 M1127.8,483.2c0-0.2,0-0.4,0-0.6c1,0,2,0,3,0c10-0.2,20-0.4,30-0.4c2.6,0,3.5-1,3-3.5c-1.3-6-2.5-12.1-3.6-18.1
			c-0.3-1.6-0.9-2.1-2.5-1.4c-3,1.2-6,2.2-9,3.3c-17.5,6.4-34.9,12.8-52.3,19.3c-0.7,0.3-1.4,0.8-2,1.2c0.7,0.1,1.4,0.3,2.1,0.3
			C1106.8,483.2,1117.3,483.2,1127.8,483.2z M272.4,484c0,0.4,0,0.8,0,1.2c11.2,0,22.4,0,33.6,0c0.5,0,1.1-0.2,1.6-0.3
			c-0.5-0.3-0.9-0.8-1.4-1c-5.2-1.9-10.4-3.7-15.6-5.5c-15.9-5.6-31.8-11.1-47.7-16.7c-2.2-0.8-3.5-0.9-3.9,2.1
			c-0.7,5.6-1.8,11.2-2.9,16.7c-0.6,2.8,0.1,3.6,3,3.6C250.2,484,261.3,484,272.4,484z M1075,230.7c-0.3-4.7-1.6-5.6-5.3-4.5
			c-13.9,4-27.9,8.1-41.8,12.2c-19.6,5.7-39.2,11.4-58.8,17.1c-8,2.3-16.1,4.7-24.1,6.8c-1.8,0.5-2.5,1-1.9,3
			c1.2,4.1,1.1,4.1,5.2,2.9c34.3-10,68.5-19.9,102.8-29.9c7.2-2.1,14.4-4.1,21.6-6.3C1073.5,231.7,1074.4,231,1075,230.7z
			 M332.3,435.5c-0.4-0.7-0.8-1.5-1.2-2.2c-4.4-7.5-8.8-15.1-13.3-22.6c-6.1-10.3-12.3-20.5-18.3-30.8c-1.3-2.3-2.4-2.4-4.3-0.7
			c-4.2,3.6-8.6,7-12.8,10.6c-2.9,2.5-2.9,2.6,0,5.1c14.3,12.1,28.7,24.1,43,36.2c1.9,1.6,3.8,3.1,5.7,4.6c0.3,0.2,0.6,0.4,0.9,0.6
			C332.2,436,332.2,435.7,332.3,435.5z M410.2,299.5C410.2,299.4,410.2,299.4,410.2,299.5c-6.5-0.1-13.1-0.1-19.6,0
			c-0.9,0-2.1,0.3-2.5,0.9c-1.5,2.6,0.1,5.2,3.1,5.3c1.6,0.1,3.2,0.3,4.8,0.3c28.6,1.5,55.5,8.9,81,21.9c3.7,1.9,7.3,4,11,6.1
			c2.5,1.4,2.8-1.1,3.8-2.2c0.3-0.3,0.1-1.7-0.3-1.9c-4.9-3.1-9.6-6.4-14.7-9c-13.2-6.7-26.4-13.2-39.8-19.5
			c-2.5-1.2-5.4-1.6-8.2-1.7C422.6,299.3,416.4,299.5,410.2,299.5z M1015.6,349.7c-4.7,0.3-8.5,0.6-12.4,0.7c-2.2,0-2.6,0.8-2.2,2.9
			c2.2,12,4.3,24,6.4,36c1.6,9.1,3.2,18.2,4.8,27.3c0.1,0.7,0.5,1.4,0.7,2.1c0.2-0.6,0.4-1.2,0.5-1.8c3.1-19.1,6.3-38.2,9.4-57.3
			c0.5-3,0.7-6,1-9C1020.8,350.3,1017.7,350,1015.6,349.7z M1149.9,560.5c-0.4-0.4-0.8-0.9-1.3-1.1c-1.4-0.6-2.7-1.1-4.1-1.6
			c-19.1-7-38.1-13.9-57.2-20.8c-1-0.4-2.1-0.6-3.1-1c0.8,0.9,1.5,1.8,2.4,2.5c16.5,13.3,33,26.6,49.4,40c1.6,1.3,2.4,1.3,3.4-0.4
			c3.2-5.4,6.5-10.7,9.7-16.1C1149.4,561.7,1149.6,561.2,1149.9,560.5z M1066.3,435.7c0.7-0.6,1.1-0.9,1.5-1.2
			c16.2-14.1,32.4-28.1,48.7-42.1c1.8-1.5,1.2-2.3-0.2-3.4c-4.5-3.6-9.1-7.1-13.6-10.8c-2.1-1.7-3.1-1.7-4.6,0.9
			c-9,15.7-18.2,31.3-27.3,47c-1.5,2.7-2.9,5.4-4.4,8.1C1066.2,434.5,1066.3,434.9,1066.3,435.7z M892.9,581.9c1-0.7,1.9-1.3,2.8-2
			c8.8-7.2,17.6-14.3,26.3-21.5c8-6.6,16-13.2,24-19.7c0.3-0.3,0.6-0.7,0.9-1c-0.5,0.1-0.9,0.1-1.4,0.2c-2.7,1-5.3,2-7.9,3
			c-18.1,6.8-36.1,13.6-54.2,20.3c-2.6,1-2.8,2-1.4,4.2c3.2,4.9,6.3,10,9.5,14.9C891.8,580.8,892.3,581.3,892.9,581.9z M325.9,485.4
			c2.5,0,4.9,0,7.4,0c0.4,0,0.7-0.1,1.1-0.2c-0.2-0.3-0.4-0.8-0.8-1c-6.2-3.3-12.1-7.4-18.6-9.8c-22.3-8-44.9-15.5-67.4-23.1
			c-4.9-1.6-4.9-1.6-6.2,3.4c0,0.1,0,0.3-0.1,0.4c-1.1,2.4-0.5,3.5,2.2,4.4c18.8,6.5,37.6,13.3,56.4,19.7
			C308.4,482,316.5,486.6,325.9,485.4z M636.2,522.2c-0.2,5.2,2.7,8.4,7,10.3c3.6,1.6,5.9,4.2,7.7,7.6c9.1,17.1,18.2,34.2,27.3,51.2
			c2.8,5.3,2.8,5.3,8.8,4.2c3.3-0.6,3.3-0.6,1.6-3.8c-9.5-18-19.1-35.9-28.7-53.9c-2.5-4.7-4.5-9.3-3.5-15.1
			c0.9-5.6-4.4-10.8-10.1-10.9C640.7,511.7,636.2,516.3,636.2,522.2z M988.8,573.3c0-0.1-0.2-0.6-0.3-1.1c-0.3,0.4-0.7,0.7-0.9,1.1
			c-10.4,18.6-20.8,37.2-31.3,55.8c-1,1.7-0.9,2.6,1.1,3.2c5.5,1.8,10.9,3.7,16.4,5.7c2.4,0.8,3.4,0.2,3.9-2.4
			c1.1-6.7,2.4-13.3,3.6-20C983.7,601.5,986.2,587.6,988.8,573.3z M345.7,638.1c2.1,0.3,2.3-1.1,2.6-2.5c1.2-6.7,2.5-13.3,3.7-20
			c2.6-14.1,5.1-28.1,7.7-42.2c0.1-0.5,0.1-1,0.1-1.4c-0.4,0.3-0.8,0.5-1.1,0.9c-0.4,0.6-0.7,1.3-1.1,1.9
			c-4.6,8.1-9.3,16.2-13.9,24.4c-5.5,9.8-10.9,19.6-16.3,29.4c-0.6,1.1-1.8,2.4,0.4,3.1C333.6,633.9,339.6,636,345.7,638.1z
			 M1077.1,629.8c-0.4-0.7-0.6-1.1-0.8-1.6c-10.4-17.9-20.9-35.8-31.3-53.6c-0.4-0.7-1.1-1.3-1.6-1.9c0,0.9-0.1,1.9,0,2.7
			c2.1,11,4.3,22,6.4,33c1.7,8.9,3.6,17.9,5.2,26.8c0.4,2.1,1.1,2.6,3.2,1.8c5.8-2.2,11.6-4.1,17.4-6.2
			C1076.1,630.7,1076.6,630.2,1077.1,629.8z M493.3,463.1c11.8,0.6,23.4-0.5,34.4-5.3c1.9-0.8,2.9-1.4,1.9-3.6
			c-2.2-5.6-4.4-11.3-6.4-16.9c-0.7-2-1.5-2.3-3.4-1.2c-14.8,8.6-29.7,17.1-44.6,25.6c-0.4,0.3-0.7,0.8-1.1,1.2
			c0.6,0.1,1.2,0.2,1.7,0.2C481.7,463.1,487.5,463.1,493.3,463.1z M712.6,140.7c0.4,1.7,0.6,3.4,1.2,5c1.7,4.7,2.9,5.3,7.6,3.9
			c13.7-4.1,27.3-8.2,41-12.2c7.9-2.3,7.9-2.3,5.5-10c-1.5-4.8-1.5-4.9-6.3-3.5c-15.2,4.4-30.4,8.9-45.6,13.4
			C714.2,137.8,712.4,138.2,712.6,140.7z M855.5,490.2c0,1.8,0.1,3.3,0,4.7c-0.1,2,0,3.2,2.6,3.2c2.5,0,2.6-1.1,2.7-3.1
			c0.7-8.8,1.1-17.8,2.6-26.4c5.7-31.6,20.8-58.2,43.9-80.3c1.6-1.5,3.2-3,5-4.4c2.4-1.9,0.3-3.5-0.3-5.2c-1,0.3-2.2,0.4-2.9,1.1
			c-5.2,4.9-10.5,9.7-15.2,15.1C869.7,422,857.1,454.1,855.5,490.2z M242.3,440.9c0.4-0.6,1.1-1.5,1.5-2.4
			c5.4-13,12.5-24.9,21.5-35.7c17-20.5,38-35.7,62.8-45.4c2.6-1,2.6-2.2,2-4.4c-0.8-2.9-2.4-1-3.7-0.8c-0.6,0.1-1.2,0.4-1.7,0.6
			c-39.4,16.9-68.8,44.1-85.8,83.9C237.7,439.2,238.6,440.6,242.3,440.9z M1016.6,340.7c-8.6,0.6-14.5,1-20.4,1.6
			c-23.7,2.3-45.5,10-65.9,22.2c-2.8,1.7-1.2,3.3-0.5,4.9c1,2.4,2.2,0.4,3.1-0.2c23.3-14.2,48.7-21.4,76-22.4
			c12.9-0.4,25.6,0.7,38.2,3.4c1.7,0.4,2.5,0.3,3.3-1.6c1.2-3-0.4-3.6-2.7-3.9C1036.5,343.3,1025.3,341.8,1016.6,340.7z
			 M444.2,510.7c-0.1,0-0.6,0.1-1.1,0.3c0.2,0.5,0.3,1.3,0.7,1.6c1.9,1.1,3.7,2.4,5.7,3c2.3,0.7,4.8,0.8,7.3,1.3
			c22.4,4.1,44.8,8.2,67.2,12.3c2.6,0.5,6.1,1.6,7.5,0.5c1.6-1.4,1.3-5,2.1-7.6c0.6-2-0.1-2.5-2.1-2.7c-6.5-0.6-13-1.4-19.5-2
			C489.6,515.1,467.2,512.9,444.2,510.7z M492.5,492.1c0-0.2,0-0.3,0-0.5c-8.9,0-17.7,0-26.6,0c-5.3,0-10.6,0-15.9,0.1
			c-0.6,0-1.1,0.4-1.7,0.6c0.6,0.2,1.1,0.4,1.7,0.5c14.2,2.5,28.3,5.2,42.5,7.2c11.8,1.7,23.7,2.6,35.6,3.7c2.5,0.2,5,0.1,7.6,0.1
			c0.1-2.7,0.1-5.4,0.4-8.1c0.3-2.9-0.7-3.8-3.7-3.8C519.1,492.2,505.8,492.1,492.5,492.1z M331.3,359.5c-2.4,1.1-4.3,2-6.3,2.7
			c-2.6,0.8-2.9,2-1.9,4.6c11.4,29.2,22.7,58.5,34.1,87.8c0.4,1.1,1.1,2.2,1.7,3.2c0.2,0.4,0.8,0.5,1.2,0.8c0-0.4,0.1-0.9,0.1-1.3
			c-0.1-0.7-0.4-1.4-0.6-2.1c-5.3-18.3-10.6-36.6-15.9-55c-3.7-12.7-7.3-25.3-11.1-37.9C332.3,361.3,331.8,360.4,331.3,359.5z
			 M411.4,291.2c0-0.1,0-0.3,0-0.4c-6.9,0-13.8,0.1-20.7,0c-2.2,0-2.7,0.8-2.7,2.8c-0.1,2.6,1.6,2.3,3.2,2.3
			c12.5,0.1,24.9,0.2,37.4,0.3c4.4,0,8.5,1.1,12.4,3.1c8.4,4.1,16.9,8,25.2,12.3c6.5,3.4,13.4,6.1,19.1,11.1c2.3,2,5.6,3,8.5,4.3
			c0.6,0.2,1.9-0.2,2.3-0.8c1.2-1.5,2.1-3.2,3.1-4.9c0,0-0.3-0.3-0.5-0.4c-3.7-1.9-7.4-3.9-11.2-5.6c-2.7-1.2-5.6-1.8-8.2-3
			c-12.2-5.9-24.3-11.9-36.5-17.8c-4.4-2.1-9-3.3-13.9-3.2C423,291.3,417.2,291.2,411.4,291.2z M383.8,359.8
			C383.7,359.8,383.7,359.8,383.8,359.8c0.3-17.9,0.8-35.8,1.1-53.6c0.1-5.3,0.1-10.6,0-15.9c0-0.7-1.2-1.8-1.8-1.8
			c-0.7,0-1.8,1-2,1.8c-0.4,1.3-0.2,2.7-0.2,4c-0.6,44.3-1.2,88.6-1.8,132.9c0,1.7-0.5,3.9,2.1,3.8c2.4-0.1,1.4-2.4,1.4-3.7
			C383,404.7,383.4,382.3,383.8,359.8z M367.5,359.5c0.7,22.8,1.3,45.6,2.1,68.4c0,1,0.8,2.9,1.3,3c2,0.1,2.1-1.5,2-3.1
			c-0.1-1.4,0-2.7-0.1-4.1c-0.9-40.7-1.7-81.4-2.6-122.1c-0.1-3.8-0.2-7.6-0.5-11.5c-0.1-0.7-1.2-1.6-2-1.8
			c-1.5-0.4-1.9,0.6-1.8,1.9c0.1,1.1,0,2.2,0,3.3C366.4,315.6,366.9,337.5,367.5,359.5z M439.3,434.7c0.4-0.3,0.8-0.5,1.2-0.9
			c16.2-13.7,32.3-27.4,48.5-41.1c1.2-1,1.4-1.7,0.1-2.9c-2.4-2.3-2.6-2.3-4.6,0.3c-0.7,1-1.5,2-2.2,3c-5,6.3-10.4,6.6-15.8,0.7
			c-1.2-1.4-1.8-1.2-2.7,0.1c-2.7,3.8-5.7,7.5-8.1,11.5c-5.7,9.2-11.1,18.6-16.7,27.9c-0.2,0.4-0.3,0.9-0.4,1.3
			C438.8,434.6,439,434.7,439.3,434.7z M312.9,290.6c0-0.2,0-0.4,0-0.6c-15.4,0-30.8,0-46.3,0c-1.1,0-2.3-0.2-3.3,0.1
			c-0.8,0.3-1.9,1.2-1.9,1.8c0,0.9,0.7,2,1.4,2.7c0.5,0.5,1.6,0.4,2.5,0.4c31.6,0.3,63.2,0.5,94.8,0.8c2.6,0,3-1,2.9-3.2
			c-0.1-2.8-2-2-3.4-2C344,290.5,328.4,290.6,312.9,290.6z M538,462.3c3.1,0.7,2.4-1.1,2-2.9c-7.7-30.5-23.2-56.2-46.6-77.3
			c-2.1-1.9-2.6-0.9-3.7,0.7c-0.9,1.4-0.9,2.3,0.4,3.4c1.3,1.1,2.5,2.4,3.8,3.6c20.2,19.5,33.8,42.8,40.8,69.9
			C535.2,461.7,535.8,462.8,538,462.3z M1087.3,304.3C1087.4,304.3,1087.4,304.3,1087.3,304.3c0.1-4.2,0.1-8.4,0.1-12.6
			c0-4.3,0-4.4-4.2-4.2c-3.3,0.1-6.6,0.4-9.9,0.8c-5.2,0.7-5.4,0.9-2.4,5.2c3.5,5.1,4.7,10.4,2.5,16.4c-0.7,1.9-1,4.1-1.6,6
			c-0.6,1.8-0.4,2.8,1.6,3.1c3.6,0.6,7.3,1.2,10.9,1.9c2.6,0.5,3.2-0.7,3.1-3C1087.3,313.4,1087.3,308.8,1087.3,304.3z M194.7,485.8
			c0,0.5-0.1,1-0.1,1.5c0.1,1.4,0.2,2.9,0.3,4.3c1.3-0.6,2.7-1.1,3.9-1.9c2.4-1.6,4.8-2.9,5-6.7c0.5-13,3-25.7,6.8-38.1
			c1.8-5.8,1.7-5.7-3.9-7.8c-2.1-0.8-3-0.4-3.6,1.8C198.4,454.3,195.7,469.9,194.7,485.8z M365.6,377.6c-0.4,0-0.8,0-1.2,0
			c0-7.9,0-15.8,0-23.7c0-2.1-0.5-3-2.8-2.4c-3.8,0.9-7.6,1.9-11.5,2.6c-2.3,0.4-2.4,1.5-1.7,3.4c5.3,14.6,10.6,29.2,15.9,43.8
			c0.2,0.5,0.6,0.9,1,1.4c0.1-0.6,0.3-1.1,0.3-1.7C365.6,393.1,365.6,385.3,365.6,377.6z M430.6,416.8c0.7-0.8,1-1.1,1.3-1.5
			c10.2-14.1,20.4-28.2,30.6-42.3c1.1-1.6,0.7-2.4-0.8-3.2c-3-1.5-6-2.9-8.9-4.6c-2.2-1.3-3.3-1-4.2,1.6c-3.1,8.7-6.5,17.3-9.7,26
			c-2.8,7.4-5.5,14.8-8.2,22.2C430.7,415.4,430.7,415.9,430.6,416.8z M389.8,341.2c-1.8-0.6-2.4,0.1-2.6,1.9
			c-0.1,2.4,0.3,3.5,3.1,3.5c13.5,0,26.7,2.5,39.7,6.2c11.8,3.4,23,8.2,33.5,14.4c1.3,0.8,2.2,1.2,3.3-0.3c2-2.7,2-2.8-1.4-4.7
			C442,348.9,416.7,342,389.8,341.2z M188.3,429.8c-3.5,0-6.9,0-10.4,0c-0.8,0-1.5,0.3-2.3,0.5c0.8,0.3,1.6,1,2.4,1
			c6.4,0.3,12.8,0.4,19.2,0.7c2.1,0.1,4.2,0.3,6.2,1c20.3,6.9,40.5,13.9,60.8,20.8c33.2,11.4,66.3,22.7,99.5,34
			c1.1,0.4,2.3,0.2,3.4,0.3c-0.9-0.7-1.8-1.7-2.9-2.1c-20-7-40-13.8-60-20.7c-28-9.6-56.1-19.2-84.1-28.8
			C209.8,433,199.7,428.2,188.3,429.8z M479.9,554.8c-0.4,0.1-0.9,0.2-1.3,0.3c0.4,0.5,0.8,1.2,1.3,1.6c9,7.4,18.2,14.7,27.1,22.2
			c1.7,1.4,2.3,0.7,3-0.6c2.8-4.5,5.6-9,8.4-13.5c1-1.6,0.8-2.2-1.3-2.6c-7.5-1.4-14.9-2.9-22.4-4.4
			C489.9,556.8,484.9,555.8,479.9,554.8z M800.8,124.5c-0.8,2.4,0.2,4,3.4,4.8c2.2,0.6,4.2,2.1,6.2,3.2c8.2,4.7,16.3,9.6,24.6,14.2
			c2,1.1,4.6,1.5,7,1.6c1,0,2.7-1.5,3-2.6c0.3-1.3-0.5-2.9-1.2-4.2c-0.4-0.8-1.5-1.2-2.4-1.6c-7.5-4.1-14.9-8.1-22.4-12.1
			c-4.4-2.4-8.8-5-13.4-7C801,118.7,800.9,119,800.8,124.5z M938.5,306.2c1.1-0.3,1.9-0.6,2.8-0.8c26.7-7.7,53.5-15.3,80.2-23.1
			c25.3-7.3,50.6-14.7,75.8-22.2c1.1-0.3,3.4,0.4,2.9-2c0-0.3-2.5-0.4-3.8-0.1c-5.5,1.4-10.9,3.1-16.3,4.7
			c-40.1,11.6-80.2,23.1-120.3,34.7c-7.1,2-14.2,4.2-21.2,6.3c-0.6,0.2-1,0.8-1.5,1.2C937.6,305.5,938.1,305.9,938.5,306.2z
			 M402.1,505.6c2.4-0.3,4.5-0.5,6.5-1c0.6-0.1,1.5-0.8,1.6-1.4c1.3-5.2,0.4-6.7-4.6-8.1c-0.8-0.2-1.7-0.4-2.5-0.7
			c-6-2.2-7.9-6-6-12.1c0.2-0.7,0.2-1.7-0.2-2.2c-3-3.5-4.6-3.4-7.5,0.1c-1.6,2-3.4,3.8-5.2,5.8c-0.7,0.8-1.8,1.6-2,2.6
			c-0.4,2.9-2.4,3.5-4.7,3.8c-1.2,0.1-2.5,0.1-3.7,0.3c-0.2,0-0.7,0.6-0.6,0.8c0.9,2.3,4.3,3,6.2,1.3c4.1-3.7,8-3.1,11,1.6
			c0.5,0.8,1.2,1.6,1.7,2.4c1.4,2.3,1.1,2.8-1.6,3.6c-0.5,0.1-0.9,0.6-1.4,0.9c0.5,0.3,0.9,0.7,1.4,0.8
			C394.6,504.6,398.5,505.1,402.1,505.6z M921.9,503.3c0-0.3,0-0.7,0-1c26.7,0,53.3,0,80,0c1.6,0,3.2,0.1,4.8-0.1
			c0.7-0.1,1.3-0.9,2-1.4c-0.7-0.4-1.4-1.1-2.1-1.1c-2.1,0-4.2,0.3-6.3,0.3c-52.6,0.3-105.1,0.6-157.7,1c-2,0-4,0-5.9,0.1
			c-0.5,0-0.9,0.6-1.4,0.9c0.5,0.4,0.9,0.9,1.5,1.2c0.4,0.2,1,0,1.5,0C866.1,503.3,894,503.3,921.9,503.3z M387,382.1
			c-0.4,0-0.8,0-1.1,0c0,9.7,0,19.5,0,29.2c0,0.5,0.3,1,0.4,1.5c0.1-0.5,0.3-0.9,0.4-1.4c3-18.2,6-36.5,9-54.7
			c1.1-6.4,1-6.3-5.3-6.8c-2.7-0.2-3.4,0.8-3.4,3.3C387,362.8,387,372.4,387,382.1z M346.1,299.2c0-0.1,0-0.2,0-0.4
			c-4.8,0-9.6,0.1-14.4,0c-2.1,0-2.6,0.6-1.8,2.6c1.1,2.9,2,5.8,2.7,8.8c0.4,1.9,1.2,2.1,2.8,1.8c8.7-1.7,17.4-3.4,26.1-4.9
			c1.7-0.3,2-1,1.9-2.4c-0.1-0.9-0.3-1.7-0.2-2.6c0.3-2.4-0.9-2.9-3-2.8C355.4,299.3,350.8,299.2,346.1,299.2z M471.4,239.2
			c4.3,0.2,7.8,0.3,11.3,0.7c1.5,0.2,3.9-0.1,4,2.4c0,2.3-2.2,1.8-3.6,2.3c-0.5,0.2-0.8,0.7-1.2,1c0.6,0.1,1.3,0.5,1.7,0.3
			c2.4-1.2,5-2.1,7-3.8c4.4-3.8,9.2-6,15-6.3c2.2-0.1,4.4-0.5,6.6-0.8c0.4-0.1,0.7-0.5,1.1-0.7c-0.3-0.2-0.5-0.5-0.8-0.6
			c-9.7-3.4-19.5-7-29.3-10.1c-2.1-0.7-4.6,0-6.9,0.1c-0.5,0-1,0.5-1.5,0.8c0.5,0.1,1,0.2,1.5,0.2c2.7,0.3,5.4,0.4,8.1,0.9
			c0.9,0.2,1.7,1.1,2.5,1.7c-0.7,0.7-1.3,1.7-2.1,1.9c-2.7,0.7-5.6,1-8.3,1.5c-1.6,0.3-3.2,0.8-4.8,1.2c1.6,0.1,3.2,0.2,4.7,0.4
			c2.9,0.3,5.9,0.4,8.8,0.9c0.9,0.1,1.6,1.2,2.3,1.9c-0.7,0.7-1.4,1.5-2.3,2.1c-0.5,0.3-1.2,0.3-1.8,0.4
			C479.7,237.9,475.9,238.5,471.4,239.2z M835.1,488.7c0,2.5-0.1,4.9,0.1,7.4c0,0.6,0.7,1.2,1.1,1.9c0.3-0.6,0.7-1.2,0.8-1.8
			c0.3-4.4,0.4-8.9,0.7-13.3c2.1-28.6,11-55,26.4-79.1c10.1-15.7,22.7-29.2,37.2-40.9c0.8-0.6,1.5-1.3,2.2-2c0.2-0.2,0.2-0.9,0.1-1
			c-0.4-0.2-0.9-0.3-1.2-0.1c-0.4,0.2-0.8,0.6-1.1,0.9c-17.6,13.4-31.8,29.9-43,48.9C844,434,836.5,460.4,835.1,488.7z M570,537.9
			c7.7,0.1,13.6-4.8,14.7-11c0.3-1.5,0.2-2.2-1.6-2.4c-6.6-0.6-13.2-1.3-19.9-2c-1.5-0.2-2.3,0.2-2.5,1.9c-0.5,3.2-1.1,6.3-1.7,9.5
			c-0.2,1.1-0.5,1.8,1,2.1C563.8,536.5,567.5,537.4,570,537.9z M219.1,433.3c0.3,0,0.6,0.1,0.9,0.1c0.5-1.1,1-2.1,1.5-3.2
			c17.6-41.2,47.2-70.7,87.3-90c4.5-2.2,9.3-3.9,13.9-6c0.6-0.3,0.9-1.1,1.4-1.7c-0.7,0-1.3-0.2-2-0.1c-0.5,0-0.9,0.3-1.4,0.5
			c-9.8,4.7-19.9,8.7-29.2,14.2c-30.4,17.9-53.1,43-68.5,74.7c-1.5,3.1-2.8,6.3-4,9.5C218.7,431.9,219,432.6,219.1,433.3z
			 M363.7,334.2c0-1.6,0.2-3.2-0.1-4.8c-0.1-0.6-1.2-1.6-1.6-1.5c-7.6,1.5-15.1,3.2-22.7,4.7c-1.7,0.3-1.9,1.2-1.5,2.6
			c0.7,2.5,1.6,4.9,2.1,7.4c0.4,1.7,1,2,2.8,1.6c5.2-1.3,10.5-2.4,15.8-3.5C363.8,339.5,363.8,339.6,363.7,334.2z M834.5,162
			c-2.1,0.9-4,1.6-5.7,2.5c-0.4,0.2-0.7,1.5-0.5,2c4.3,10.5,8.8,20.9,13.2,31.3c0.2,0.5,1.1,1.3,1.5,1.1c2-0.6,3.9-1.4,5.8-2.3
			c0.3-0.1,0.4-1.3,0.2-1.8c-4.3-10.3-8.7-20.7-13.1-31C835.6,163.3,835,162.7,834.5,162z M856.2,241.3c-0.3-6.5-2.3-12.2-7.5-16.5
			c-1.4-1.2-2.3-1.4-3.2,0.7c-2.4,6-5.1,12-7.7,18c-0.7,1.5-0.2,2,1.3,2.6c2.8,1,5.7,2.1,8.3,3.7c1.6,1,1.8,0.5,2.6-0.7
			c0.9-1.5,2.2-3.3,3.6-3.7C856.1,244.6,856.4,243.3,856.2,241.3z M887.1,308.5c-0.2-4.8-1.3-9-5.2-11.9c-3.1-2.3-3.4-2.2-4.9,1.3
			c-0.4,1-1.2,1.9-1.9,2.7c-2.2,2.2-4.4,4.3-6.6,6.4c-1,1-1.6,1.4,0.3,2.5c1.6,0.9,3.1,2.7,3.9,4.5c0.8,1.8,0.6,4.1,0.8,6.1
			c0.1,0.7,0.3,1.3,0.5,2c0.6-0.4,1.2-0.7,1.8-1.1c1.6-1.4,3-2.9,4.6-4.2c0.9-0.7,2.4-1.7,3.2-1.4c3,1.2,3-0.7,3.2-2.6
			C886.8,311.2,887,309.8,887.1,308.5z M376.2,453.1c1.9-0.1,4.5,0.2,5.4-2.4c1.4-4.3,2.5-8.7,3.6-13.1c0.2-0.7-0.7-2.1-1.4-2.4
			c-4.5-1.8-9-2.1-13.7-0.5c-3.8,1.3-4,1.4-3.1,5.5c0.6,2.8,1.3,5.5,2.2,8.2C370.6,452.4,371.5,453,376.2,453.1z M610,424.7
			c-0.2,0.1-0.6,0.3-0.9,0.4c-3.4,1.6-6.9,3.1-10.2,4.8c-0.4,0.2-0.6,1.4-0.3,1.9c2.7,6.4,5.6,12.8,8.3,19.3c0.8,1.9,1.5,1.5,3,0.8
			c2.7-1.3,5.7-2.3,8.5-3.4c0.8-0.3,1.7-0.7,2.5-1c-0.7-0.7-1.4-1.5-2.2-2.1c-2.1-1.6-4.6-2.8-6.4-4.8c-3.1-3.6-2.4-7.8-0.8-11.8
			C612.2,426.9,611.5,424.8,610,424.7z M363.5,315.1c-0.1-5.2-0.1-5.3-5.2-4.4c-6.5,1.2-13,2.4-19.5,3.9c-6.2,1.4-6.1,1.6-4.7,7.7
			c0.5,2,1.2,2.3,3.3,1.8c7.4-1.7,14.9-3.2,22.4-4.6C363.5,318.8,363.6,319,363.5,315.1z M366.5,422.1c0.1,0,0.1-0.1,0.2-0.1
			c-0.8-4.6-1-9.3-2.5-13.7c-5.8-16.6-11.9-33.1-18-49.7c-0.4-1-1.2-1.9-1.8-2.8c0.1,1.1,0,2.3,0.3,3.4
			c5.1,17.8,10.3,35.5,15.4,53.2c1.6,5.7,3.3,11.3,5.1,17c0.2,0.5,0.6,1,0.8,1.5c0.2-0.6,0.4-1.2,0.5-1.9
			C366.5,426.8,366.5,424.4,366.5,422.1z M629.7,430.7c1.1-3.9,0-4-2.5-3.4c-3.8,0.9-7.7,1.1-11.6,1.8c-0.8,0.2-1.9,1-2.2,1.8
			c-1.8,4.8-0.1,9,4.5,11.4c0.7,0.4,1.7,0.8,2.4,0.6c4-1.1,7.9-2.4,11.9-3.5c1.9-0.5,1.5-1,0.6-2.4
			C631.4,434.8,630.5,432.3,629.7,430.7z M206.6,416.4c0.1,0.3,0.4,1.4,0.6,1.4c0.7,0,1.5-0.4,2.1-0.8c0.4-0.3,0.5-1.1,0.8-1.6
			c3.8-7,7.4-14.2,11.5-21c1.9-3.2,3-5.7-0.4-8.4c-1.1-0.9-2.1-1.9-3.1-2.9c-0.9,1.3-1.8,2.5-2.5,3.8c-0.3,0.5-0.2,1.2-0.3,1.8
			c-0.6,2.9-1.1,5.8-4.2,7.4c-0.5,0.3-1,1.1-1.1,1.8C208.8,403.9,207.7,410,206.6,416.4z M561,461.1c-0.2-1.2-0.3-2.1-0.6-2.9
			c-3-12.4-6.9-24.4-12.4-35.9c-10.4-21.8-24.6-40.7-42.9-56.4c-0.6-0.5-1.6-0.5-2.3-0.8c0.4,0.7,0.7,1.4,1.2,2
			c0.2,0.3,0.5,0.5,0.8,0.7c23.2,20.5,39.7,45.4,49.3,74.8c1.9,6,3.3,12.1,5.1,18.1c0.2,0.5,0.8,0.9,1.2,1.4
			C560.6,461.8,560.8,461.3,561,461.1z M532.4,245.5c-2.2,1.2-4.2,2.2-6.2,3.3c-2.7,1.4-2.3,3.5-1.4,5.8c1.4,3.7,2.5,7.4,3.7,11.2
			c0.5,1.4,1,2.1,2.6,1.3c2.1-1.1,4.2-2,6.4-2.8c1.6-0.6,1.6-1.2,1-2.7c-1.9-4.8-3.5-9.7-5.3-14.5
			C533.1,246.7,532.8,246.2,532.4,245.5z M394.8,321.6c-1.6-0.1-3.2-0.3-4.8-0.2c-0.8,0-1.6,0.5-2.5,0.8c0.8,0.3,1.5,0.9,2.4,1
			c6.5,0.6,13.1,0.8,19.5,1.6c21.8,2.8,42.5,9.5,61.9,19.9c2.1,1.1,4.1,2.3,6.2,3.3c0.7,0.3,1.7,0.2,2.5,0.3c-0.6-0.7-1-1.5-1.8-1.9
			c-2.1-1.3-4.3-2.4-6.5-3.6C447.7,330.1,422,323.1,394.8,321.6z M1089.7,304.5C1089.7,304.5,1089.7,304.5,1089.7,304.5
			c0,4.8-0.1,9.6,0.1,14.4c0,0.8,0.9,1.6,1.4,2.4c0.5-0.8,1.3-1.5,1.5-2.4c1.4-8.7,2.6-17.5,4.1-26.2c0.9-5.1,1.3-3.8-3.5-4.9
			c-0.1,0-0.2,0-0.4-0.1c-2.3-0.5-3.4,0.1-3.2,2.8C1089.9,295.1,1089.7,299.8,1089.7,304.5z M791.2,124c0-5.1-0.2-5.4-5.1-4.4
			c-3.5,0.7-6.9,1.7-10.3,2.6c-5.8,1.6-5.7,1.6-3.8,7.4c0.6,1.7,1.3,2,2.9,1.5c4.1-1.2,8.2-2.5,12.4-3.2
			C790.3,127.4,791.9,126.8,791.2,124z M559.7,499.5c0-0.9,0-1.7,0-2.6c0-4.2,0-4.3-4.1-4.3c-2.7,0-6.3-0.8-7.7,0.6
			c-1.4,1.5-0.6,5.1-0.6,7.8c-0.1,4.3,0,4.3,4.1,4.9c0.4,0,0.7,0.1,1.1,0.1C559.6,506.6,559.6,506.6,559.7,499.5z M548.6,521.2
			c-2.8-0.7-3.4,0.1-3.6,2c-0.3,3.1-1,6.2-1.5,9.2c3.2,0.7,6.5,1.3,9.6,2.1c1.7,0.4,2.2-0.2,2.4-1.7c0.5-2.9,1.1-5.8,1.8-8.6
			c0.5-1.8-0.2-2.5-1.9-2.6C552.9,521.6,550.3,521.3,548.6,521.2z M385,467.6c-2,0.1-4.5,0.2-6.9,0.3c-1.4,0.1-1.9,0.6-1.3,2.1
			c1.6,3.7,3.1,7.5,4.5,11.2c0.7,2,1.6,1.5,2.5,0.3c3.1-4.1,6.2-8.2,9.3-12.3c1-1.4,0.2-1.6-1.1-1.6
			C389.9,467.6,387.7,467.6,385,467.6z M837.3,152.3c-0.3-0.3-0.5-0.7-0.7-0.8c-2.3-1.2-4.5-2.4-6.9-3.5c-0.6-0.2-1.6,0.1-2.2,0.5
			c-1.1,0.7-2,1.9-3.1,2.6c-2.4,1.6-2.7,3.3-1.5,5.9c3,6.5,4,6.9,10.1,2.9c0.5-0.4,0.9-1,1.2-1.6c0.7-1.5,1.3-3,2-4.4
			C836.5,153.2,836.9,152.8,837.3,152.3z M1061.2,304.9c0.2-0.1,0.4-0.2,0.6-0.3c-1.5-3.2-2.9-6.3-4.5-9.5c-0.2-0.3-1.5-0.4-1.9-0.1
			c-5.8,4.5-6.9,9.1-1.7,14.5c1.4,1.5,3.4,2.4,5.1,3.6c0.7-1.9,1.4-3.7,2.1-5.7C1061.1,306.6,1061.1,305.7,1061.2,304.9z
			 M779.4,388.4c-1.2-0.6-1.9-0.8-2.3-1.2c-1.9-1.9-3.8-3.9-5.4-6c-3-3.9-3-4-6.9-0.8c-0.8,0.6-1.4,1.3-2.1,2
			c-0.9,0.9-1,1.6,0.2,2.6c2.3,2,4.2,4.5,6.3,6.7c0.9,0.9,1.1,3.4,3.1,2.2C774.5,392.6,776.4,390.8,779.4,388.4z M619,461.8
			C619,461.8,619,461.8,619,461.8c1.9-0.1,3.7,0,5.5-0.2c0.4,0,1.2-1.2,1.1-1.5c-1.4-3.1-3-6.1-4.5-9.1c-3.3,1-6.5,1.9-9.8,2.9
			c-0.3,0.1-0.8,0.3-0.9,0.5c-0.3,0.6-0.7,1.3-0.7,1.9c0.5,3.9,2.4,5.4,6.3,5.4C617,461.8,618,461.8,619,461.8z M364.2,345.3
			c-0.3-1.2,0.5-3.3-2.1-2.7c-6.3,1.4-12.7,2.8-19,4.2c-1.5,0.3-1.6,1-1.3,2.4c0.5,2.4,1.3,3.3,4,2.5c5.2-1.4,10.5-2.4,15.8-3.3
			C363.6,348.1,364.5,347.4,364.2,345.3z M795.9,105.5c3.5,0.6,6.9,1.1,10.3,1.8c1.5,0.3,2-0.1,1.3-1.3c-0.8-1.4-1.8-3.3-3.1-3.7
			c-6.2-2.3-12.6-2.4-18.7,0.3c-1.4,0.6-2.4,2.3-3.2,3.8c-0.7,1.2-0.3,1.9,1.5,1.5C787.9,106.8,791.9,106.2,795.9,105.5z M925,406.5
			c-0.2-0.5-0.3-0.6-0.3-0.7c-3-6.2-6-12.4-9-18.6c-0.2-0.3-0.9-0.7-1-0.7c-2.2,2-4.3,4-6.4,6.1c-0.1,0.1,0.8,1.4,1.4,1.9
			c3.4,2.9,6.8,5.7,10.2,8.6c1.2,1,2.4,2.1,3.7,3.1C924,406.4,924.4,406.4,925,406.5z M1068.4,300.1c2.3,0.9,2.1,0,1.3-1.4
			c-1.5-2.7-3-5.4-4.5-8c-1.2-2.1-2.2-5.5-4-6c-2.2-0.6-5.1,1.1-7.7,1.9c-0.5,0.2-1,0.5-1.5,0.8c0.5,0.1,1,0.1,1.4,0.3
			c1.9,1.2,4.2,2.1,5.6,3.8c1.8,2.3,3.1,5,4.2,7.7c0.8,2,1.1,3.4,3.3,1.2C1066.8,300,1067.9,300.2,1068.4,300.1z M563.2,499.8
			c-0.1,0-0.2,0-0.3,0c0,1.5,0.1,3,0,4.4c-0.1,1.8,0.3,2.7,2.4,2.7c2.9,0.1,5.9,0.6,8.8,0.7c0.8,0,1.7-0.5,2.5-0.7
			c-0.4-1-0.6-2.1-1.3-2.8c-1-1.1-2.4-1.8-3.4-2.8c-2.5-2.3-6.4-3.6-6.6-7.9c0-0.3-0.8-0.8-1-0.8c-0.5,0.2-1.1,0.7-1.1,1.1
			C563.1,495.9,563.2,497.8,563.2,499.8z M874.3,252.8c0.4,8.1,5.2,17.8,11,21.5c0.5,0.3,1.1,0.4,1.6,0.6c-0.1-0.6-0.1-1.1-0.3-1.7
			c-3-7-5.9-14.1-9-21.1c-0.6-1.3-1.4-2.5-2.1-3.7C875.1,249.8,874.7,251.3,874.3,252.8z M364.4,498.8c1.2,2,2.1,5.3,4,6.3
			c5.2,2.6,10.9,4.3,16.4,6.3c0.4,0.1,1-0.3,1.6-0.5c-0.2-0.5-0.2-1.3-0.6-1.6c-1.1-0.7-2.3-1.4-3.5-1.9c-3.4-1.3-7-2.3-10.3-3.9
			c-3.5-1.7-4.4-4.8-2-7.5c1.6-1.8,0.2-2.3-0.6-3.2c-1.2-1.4-2.4-0.6-3,0.5C365.6,494.8,365.2,496.5,364.4,498.8z M796.5,107.9
			c-3.6,0.6-7.1,0.9-10.4,1.7c-1.2,0.3-2.2,1.4-3.3,2.2c1.3,1,2.5,2.3,3.9,3c0.6,0.3,1.9-0.7,2.7-1.3c3.1-2.4,8.7-2.5,11.8-0.3
			c2.2,1.6,4.2,1.4,5.8-0.6c1.1-1.4,1.1-2.5-0.9-2.9C802.9,109,799.6,108.5,796.5,107.9z M366.2,482.3c-0.8-3.7-1.4-6.7-2-9.7
			c-0.3-1.6-1.3-1.7-2.4-0.9c-2.6,1.8-5.2,3.7-7.7,5.6c-1.4,1.1-0.8,1.7,0.6,2.2c3.2,1.1,6.4,2.3,9.7,3.3
			C365,483,365.7,482.5,366.2,482.3z M344.7,450c0.1,0.6,0.1,1.1,0.3,1.5c1.6,2.6,3.5,5.1,4.7,7.9c1.7,4.1,5.4,5.6,8.6,7.7
			c0.2,0.1,1-0.4,1-0.5c-1.3-2.9-2.1-6.3-4.1-8.5c-2.7-3-6.3-5.1-9.5-7.6C345.4,450.4,345.2,450.3,344.7,450z M919.5,236.8
			c3.7-1,6.6-1.8,9.5-2.8c0.4-0.1,0.9-1.1,0.8-1.6c-0.2-1.2-0.5-2.4-1-3.5c-0.3-0.5-1.3-1.2-1.8-1.1c-2.8,0.7-5.7,1.6-8.4,2.6
			c-0.5,0.2-0.9,1.7-0.7,2.5C918.2,234.4,919,235.6,919.5,236.8z M526.7,331.1c-0.1-3.1-4-7-7.1-7.9c-2.9-0.8-3.9,1.5-5.2,3.1
			c-0.3,0.4-0.4,1-0.7,1.6c0.5-0.1,0.9-0.2,1.4-0.3c2.8-0.7,5.2-0.1,6.9,2.3c1.6,2.3,1.4,4.9,0.1,7.3c-0.8,1.4-1.8,2.6-2.7,4
			c-0.2,0.3-0.2,0.8-0.4,1.2c0.4-0.2,0.9-0.3,1.1-0.7c1.9-2.7,3.9-5.4,5.7-8.1C526.3,332.7,526.5,331.6,526.7,331.1z M1068.2,193.8
			c3-0.9,5.2-1.5,7.4-2.2c2.7-0.8,3.6-4.1,1.6-6.3c-0.3-0.3-1.1-0.5-1.5-0.4c-2.7,0.7-5.4,1.5-8.1,2.3c-2,0.6-1.4,2-0.9,3.2
			C1067.1,191.6,1067.7,192.7,1068.2,193.8z M1010.4,450c0.5,1.6,1.3,3.9,2.2,6.1c0.2,0.5,0.7,0.8,1,1.2c0.2-0.4,0.4-0.8,0.7-1.2
			c3.7-6.8,0-13.4-0.8-20.1c0-0.3-0.4-0.5-0.6-0.7c-0.1,0.4-0.2,0.7-0.3,1.1C1011.9,440.7,1011.2,444.9,1010.4,450z M930.3,273.2
			c2.7-0.8,4.7-1.3,6.7-1.9c4.1-1.2,3.9-1.1,2.6-5.1c-0.6-1.9-1.4-2.2-3.1-1.6c-2.3,0.8-4.7,1.5-7,2.1c-1.6,0.4-1.6,1.3-1.1,2.5
			C929.1,270.6,929.8,271.9,930.3,273.2z M1079.7,229.9c2.9-0.8,5.8-1.5,8.6-2.4c0.4-0.1,1-0.7,1-0.9c-0.3-1.7-0.6-3.4-1.3-4.9
			c-0.2-0.4-1.9-0.2-2.9,0c-2.2,0.6-4.4,1.4-6.7,2c-1.9,0.5-1.6,1.7-1,2.8C1077.9,227.7,1077.2,230.1,1079.7,229.9z M1039.8,467.3
			c0.6-0.3,0.8-0.4,1-0.5c6.6-3,9.3-9.2,12.3-15.1c0.1-0.3,0-0.7-0.1-1c-0.3,0.1-0.7,0.2-1,0.4c-2.4,2-4.5,4.2-7.1,6
			c-3.3,2.2-4.1,5.7-5.4,9C1039.5,466.4,1039.7,466.8,1039.8,467.3z M206.8,394.3c1.5-0.7,3.5-1,4.1-2.1c1.2-1.9,1.6-4.3,2.2-6.6
			c0.1-0.3-0.7-1.1-1-1c-2.1,0.2-4.2,0.4-6.1,1c-1.5,0.5-3,5.2-2.2,6.9C204.2,393.3,205.6,393.6,206.8,394.3z M842.7,217.3
			c0.6-0.2,0.9-0.4,1.3-0.5c5.5-2.1,10.9-4.3,16.4-6.4c1.1-0.4,2.1-1.2,1.1-2.4c-0.4-0.5-1.7-0.7-2.3-0.5c-4.1,1.6-8.2,3.3-12.3,5
			c-1.6,0.7-3.2,1.2-4.7,2c-0.5,0.2-0.9,1.2-0.8,1.7C841.5,216.6,842.3,217,842.7,217.3z M842.1,211.2c1-0.4,1.9-0.8,2.8-1.1
			c11.6-4.3,23.2-8.5,34.8-12.9c0.6-0.2,1.1-1,1.6-1.6c-0.8,0-1.6-0.1-2.3,0.1c-11.9,4.4-23.7,8.8-35.5,13.2c-0.7,0.3-1.4,0.6-2,1
			c-0.2,0.1-0.4,0.7-0.3,0.9C841.4,211,841.9,211.1,842.1,211.2z M518.2,236.9c-1.6,0.1-3.2,0.2-4.8,0.3c-2.6,0.2-3.9,1.2-2.9,4
			c0.2,0.6,0.3,1.2,0.4,1.8c0.9,3.7,3.3,5.9,6.5,5.7c3.6-0.1,5.3-2,5.8-6.3C523.8,237.1,523.5,236.7,518.2,236.9z M539.3,498.5
			c0,1.5,0,3,0,4.4c-0.1,2.7,2.2,1.7,3.5,2.1c1.6,0.5,1.8-0.8,1.8-1.9c0.1-2.6-0.1-5.2,0.2-7.7c0.2-2.7-1.2-2.9-3.3-3.1
			c-2.8-0.2-2,1.8-2.1,3.2C539.3,496.5,539.3,497.5,539.3,498.5z M372.5,540.2c0-0.4,0-0.7,0-1.1c-0.1-0.8-0.3-1.6-0.4-2.4
			c-0.6,0.5-1.2,1.1-1.8,1.6c-3.8,3.3-3.5,8.1-4.4,12.5c-0.3,1.5-0.3,3.1-0.5,4.6c0.9-1.3,1.9-2.5,2.6-3.9
			C369.7,547.9,372.9,544.7,372.5,540.2z M1062.3,491.5c3.6-1.4,7.7-2.9,11.8-4.5c0.3-0.1,0.4-0.5,0.6-0.7c-0.3-0.1-0.7-0.2-1-0.2
			c-3.8,0-7.6,0-11.5,0.1c-1.2,0-2.4,0.5-3.4,1.1c-1.4,0.7-2.6,1.7-4,2.6c1.4,0.4,2.9,0.7,4.3,1.1
			C1059.9,491.1,1060.8,491.2,1062.3,491.5z M407.4,552.8c0.1,0,0.1,0,0.2,0c-0.7-3.6-1.1-7.4-2.3-10.8c-0.7-1.9-3.1-3.2-4.7-4.7
			c-0.1,2.2-0.8,4.7,0,6.5c1.7,3.9,4.2,7.5,6.4,11.1c0.2,0.3,0.5,0.5,0.8,0.7c0-0.3,0.1-0.7,0-1C407.7,554,407.5,553.4,407.4,552.8z
			 M1002.2,540.8c-0.2-0.1-0.3-0.2-0.5-0.3c-0.2-1.3-0.3-2.6-0.5-3.9c-1,1-2.1,1.9-3,2.9c-0.8,0.9-1.6,2-1.8,3.1
			c-0.9,4-1.5,8-2.2,11.9c-0.1,0.3,0.1,0.7,0.1,1.1c0.4-0.3,0.8-0.5,1.1-0.9c1.5-2.6,3-5.1,4.3-7.7
			C1000.6,545,1001.3,542.8,1002.2,540.8z M538.4,520.3c-0.1,0.2-1.1,0.9-1.3,1.8c-0.6,2.2-0.8,4.6-1.4,6.9
			c-0.5,1.9,0.3,2.4,1.9,2.6c1.5,0.3,2.9,1,3.3-1.4c0.3-2.3,0.8-4.6,1.3-6.9C542.9,520.7,541.8,519.9,538.4,520.3z M876.8,506
			C876.8,506,876.8,506,876.8,506c-3.4,0-6.9,0.1-10.3,0c-2.1-0.1-2,1.1-1.9,2.6c0.1,1.6,0.8,2.2,2.4,1.9c6.5-1.2,13-2.4,19.5-3.6
			c0.4-0.1,0.8-0.3,1.3-0.5c-0.4-0.1-0.9-0.3-1.3-0.3C883.1,506,879.9,506,876.8,506z M978.3,518.7c-2,0.4-4.4,0.4-6,1.4
			c-3.5,2.3-6.6,5.1-9.9,7.7c-0.2,0.2-0.3,0.6-0.5,0.9c0.4,0,0.7,0.1,1,0c3-1,5.9-2.4,9-3.1c3.4-0.8,5-3.4,7-5.7
			c0.2-0.2,0.2-0.7,0.4-1C979,518.9,978.6,518.8,978.3,518.7z M350.6,519.6c-0.8-0.5-1.2-0.9-1.5-0.9c-2.3,0.5-4.8,0.5-6.7,1.6
			c-3.2,2-5.9,4.7-8.9,7.2c-0.4,0.3-0.6,0.7-0.9,1.1c0.5-0.1,0.9-0.1,1.4-0.2c3.5-1.2,7.1-2.1,10.4-3.7
			C346.7,523.7,348.4,521.5,350.6,519.6z M1004,522.9c0,0-0.1,0-0.1,0c0,1,0,2,0,2.9c0,0.7,0.2,1.4,0.2,2.1c0.5-0.4,1.2-0.7,1.6-1.2
			c1.6-1.8,3.3-3.7,4.7-5.7c0.5-0.7,0.8-2.1,0.5-2.8c-0.5-1.2-1-3.1-3.1-2.3c-1.8,0.7-4.4,0.6-3.9,3.8
			C1004.1,520.7,1004,521.8,1004,522.9z M580,501.9C580,501.9,580,501.9,580,501.9c-0.1,0.9-0.1,1.7-0.1,2.6c0,3.9,0,3.7,3.9,4.3
			c2,0.3,2.7-0.6,2.3-2.1c-0.7-2.8-1.7-5.5-2.9-8.2c-0.4-1-1.7-1.7-2.6-2.5c-0.2,1.1-0.5,2.2-0.7,3.3C580,500.2,580,501,580,501.9z
			 M1068.5,527.3c-0.5-0.5-0.6-0.7-0.8-0.9c-3.2-2.6-6.2-5.6-9.8-7.8c-1.9-1.2-4.6-0.9-7-1.3c1.2,1.6,2.4,3.3,3.8,4.8
			c0.5,0.5,1.1,1,1.8,1.3c3.6,1.3,7.1,2.5,10.7,3.7C1067.5,527.4,1067.8,527.3,1068.5,527.3z M1026.9,522.2c-0.1,0-0.1,0-0.2,0
			c0-1.4-0.1-2.7,0-4.1c0.1-1.7-0.8-2.3-2.2-2.8c-2.2-0.8-3.1,0.6-4.2,2c-1,1.3-1.5,2.5,0.2,3.8c0.8,0.7,1.4,1.7,2.1,2.5
			c1.2,1.3,2.5,2.6,3.7,3.9C1026.5,525.7,1026.7,523.9,1026.9,522.2z M202.7,406.5c-0.1,0-0.2,0-0.3,0c0,2.8,0,5.7,0,8.5
			c0,0.6,0.5,1.1,0.7,1.6c0.3-0.5,0.6-0.9,0.7-1.4c1.1-5.7,2.2-11.3,3.3-17c0.2-1,0.7-2.3-1.2-2.4c-1.5-0.1-2.7,0-2.8,1.9
			C203.1,400.6,202.8,403.5,202.7,406.5z M906.3,315.1c-0.7,0.3-1.1,0.5-1.6,0.6c-4.9,2-9.8,3.9-14.6,6c-0.8,0.3-1.3,1.4-1.9,2.1
			c1,0.2,2.3,0.8,3.1,0.5c4.6-1.8,9.1-3.8,13.6-5.7c0.8-0.3,1.6-0.7,2.2-1.2c0.3-0.3,0.3-1.1,0.2-1.7
			C907.1,315.5,906.5,315.3,906.3,315.1z M989.5,514.4c2.9-0.5,5.7-0.9,8.4-1.6c1.8-0.4,2.5-3.8,1.2-5c-2.5-2.4-4.4-2.2-6.7,0.5
			c-1.2,1.4-2.4,2.8-3.6,4.2c-0.4,0.4-0.6,1-0.9,1.5C988.4,514.1,989,514.2,989.5,514.4z M333.6,487.7c0,0,0-0.1,0-0.1
			c-2,0-3.9,0-5.9,0c-0.4,0-0.9,0.2-1.3,0.2c0.3,0.3,0.6,0.8,1,0.9c3.3,1.3,6.6,2.6,10,3.7c1,0.3,2.3,0.3,3.2-0.1
			c0.9-0.4,1.6-1.5,2.3-2.3c-0.8-0.6-1.5-1.7-2.3-1.9C338.3,487.9,335.9,487.9,333.6,487.7z M962.1,488c-1.8,0-3.7,0-5.5,0
			c-0.3,0-0.6,0.2-1,0.4c0.2,0.2,0.3,0.6,0.5,0.7c5.5,1.8,10.7,5.3,16.9,3.1c0.4-0.1,0.8-0.3,1.2-0.5c-0.3-0.3-0.6-0.7-1-1
			C970,488,966.1,487.6,962.1,488z M1030.6,507.7c0.2,0.1,0.4,0.2,0.7,0.3c-0.5,2.3,0.5,3.4,2.5,3.7c2.2,0.3,4.3,0.7,6.5,1
			c0.5,0.1,1.1-0.2,1.6-0.3c-0.3-0.5-0.5-1.1-0.8-1.5c-1.4-1.7-2.8-3.4-4.4-4.9c-0.8-0.7-2.4-1.4-3.3-1.1
			C1032.3,505.4,1031.5,506.8,1030.6,507.7z M851.1,144.4c0-3.5-1.6-5.7-4.5-6.8c-0.4-0.2-0.9-0.2-1.4-0.2c0.3,0.4,0.5,0.9,0.8,1.2
			c4.7,4.9,3.3,11-3.1,13.4c-0.6,0.2-1.2,0.3-1.7,0.6c-0.3,0.2-0.7,0.9-0.6,1.2c0.5,1.8,2.8,2.8,4.1,1.5
			C848,152.2,850.2,148.3,851.1,144.4z M1035.8,489.8c-0.4,0.5-1.4,1.4-2.1,2.4c-1,1.3-0.9,2.7,0.5,3.5c1,0.6,2.6,1.2,3.4,0.8
			c2.5-1.1,4.7-2.7,7-4.1c0.3-0.2,0.4-0.5,0.6-0.8c-0.3-0.1-0.6-0.4-0.9-0.4C1042,490.8,1039.4,490.4,1035.8,489.8z M1017.3,476.1
			c-0.7-2-1.2-3.5-1.8-5c-0.5-1.4-1.2-2.7-1.8-4c-0.6,1.3-1.3,2.5-1.8,3.9c-0.6,1.4-1.2,2.8-1.4,4.2c-0.1,1,0,2.6,0.7,3.1
			c0.9,0.7,2.6,1.1,3.6,0.7C1015.9,478.5,1016.6,477,1017.3,476.1z M336.2,329.7c1.7-0.3,2.5-0.5,3.4-0.7c7.3-1.4,14.6-2.9,21.9-4.4
			c0.8-0.2,1.4-0.8,2.1-1.3c-0.8-0.2-1.7-0.7-2.4-0.6c-6.1,1.1-12.3,2.3-18.4,3.5c-2,0.4-4,1-6,1.6c-0.3,0.1-0.7,0.6-0.8,1
			C335.9,329.3,336.2,329.8,336.2,329.7z M255.6,312.7C255.6,312.7,255.6,312.7,255.6,312.7c0.1-3.1,0.1-6.2,0-9.2
			c0-0.6-0.8-1.2-1.3-1.7c-0.4,0.5-1,1.1-1,1.6c-0.1,6.3-0.2,12.6-0.1,18.8c0,0.6,0.9,1.1,1.3,1.7c0.4-0.6,1-1.3,1.1-1.9
			C255.6,318.8,255.6,315.7,255.6,312.7z M992.4,497.8c0.1-0.2,0.2-0.4,0.3-0.6c0.4,0,0.8,0.1,1.1,0c1.1-0.7,2.7-1.4,3-2.4
			c0.4-1.5-2.2-3.3-3.9-3c-2.4,0.4-4.8,0.7-7.2,1.1c-0.3,0-0.6,1.2-0.5,1.2C987.5,495.3,989.9,496.5,992.4,497.8z M577.1,497.4
			c-0.1-4.7-0.1-4.7-4.7-4.7c-0.6,0-1.2-0.1-1.8,0c-0.7,0.2-1.5,0.5-2.2,0.8c0.3,0.7,0.5,1.7,1,2.2c1.3,1.3,2.8,2.4,4.3,3.5
			c0.9,0.7,2,1.2,3,1.8C576.8,499.7,576.9,498.6,577.1,497.4z M477.1,250.9c6.7-0.1,12.6-2,17.6-6.6c2.9-2.7,6.2-4.3,10.3-4.3
			c0.6,0,1.2-0.6,1.8-0.9c-0.6-0.2-1.3-0.5-1.9-0.4c-4.9,0.3-9.1,2.3-12.5,5.6c-3.4,3.3-7.5,4.5-12,4.7c-1.1,0.1-2.2,0.1-3.3,0.3
			c-1.2,0.2-2.4,0.7-3.6,1C474.7,250.5,475.9,250.7,477.1,250.9z M1033.7,484.6c0.6-0.4,1.1-0.5,1.2-0.7c2.8-4.9,5.6-9.8,8.4-14.8
			c0-0.1-0.6-0.6-0.7-0.6c-1.8,1.3-4.2,2.2-5.1,4c-1.7,3.2-2.7,6.9-3.9,10.4C1033.5,483.3,1033.7,483.8,1033.7,484.6z M415.3,464.8
			c1.7-1.3,3.2-2,4-3.2c2.1-3.1,4-6.5,5.9-9.7c0.3-0.5,0.3-1.3,0.4-1.9c-0.5,0.2-1.3,0.3-1.6,0.7c-3.2,4-6.3,8.1-9.4,12.2
			C414.4,463,414.9,463.6,415.3,464.8z M1003.2,534.9c0.2,0.1,0.4,0.3,0.6,0.4c0,0.7,0,1.5,0,2.2c0,0.3,0.2,0.6,0.3,0.9
			c0.3-0.2,0.7-0.3,0.9-0.5c2.7-4.6,5.5-9.3,8.2-13.9c0.2-0.4,0.1-0.9,0.2-1.3c-0.5,0.2-1.2,0.2-1.5,0.5c-2.1,2.4-4.2,4.8-6.1,7.3
			C1004.8,531.8,1004.1,533.4,1003.2,534.9z M853.4,198.5c-4.4,1.8-8.4,3.5-12.5,5.3c-0.2,0.1-0.4,1.3-0.2,1.5c0.5,0.5,1.5,1,2,0.8
			c3.7-1.3,7.4-2.7,11-4.1c0.5-0.2,1.1-1.1,1-1.5C854.6,199.7,853.8,199.2,853.4,198.5z M1006.7,473.9c0.1,0.2,0.4,0.7,0.6,1.1
			c0.3-0.3,0.7-0.6,0.9-1c1-2.8,1.7-5.7,2.9-8.4c1.2-2.8,0.4-5.3-0.7-7.8c-0.2-0.4-0.6-0.6-1-0.9c-0.1,0.3-0.3,0.6-0.4,0.9
			C1008.2,463.1,1007.5,468.3,1006.7,473.9z M1051.3,491.9c-0.8,0.3-1.7,0.5-2.4,0.9c-3,1.7-5.9,3.5-8.8,5.4c-0.4,0.3-0.7,0.8-1,1.2
			c0.5,0,1.2,0.3,1.6,0.1c3.8-1.3,7.6-2.7,11.4-4.2c1.4-0.6,2.8-1.3,4.3-1.9C1054.7,492.9,1053,492.5,1051.3,491.9z M793.5,122.9
			c0,0.5,0,1,0,1.5c0,1.7-0.4,3.4,2.4,3.4c2.7,0,2.5-1.6,2.5-3.3c0-1.3,0.1-2.7-0.2-4c-0.2-0.7-1.1-1.6-1.8-1.7
			C793.9,118.1,793.5,118.7,793.5,122.9z M1029,524.3C1029,524.3,1029,524.3,1029,524.3c0.1,1.4,0.3,2.7,0.1,4.1
			c-0.4,2.9,1.3,4.6,3.1,6.4c0.2,0.2,0.6,0.3,0.9,0.5c0.1-0.3,0.3-0.6,0.3-0.9c-1-5.3-1.9-10.7-3-16c-0.1-0.3-0.6-0.6-0.9-0.9
			c-0.1,0.4-0.4,0.8-0.4,1.2C1028.9,520.6,1029,522.5,1029,524.3z M1034.1,514.2c-0.3,0.1-0.9,0.3-1.4,0.4c0.3,0.4,0.5,1.1,0.9,1.3
			c4.8,1.7,9.7,3.3,14.6,4.9c0.3,0.1,0.7,0,1.1-0.1c0-0.3,0-0.7-0.1-0.9c-1.4-1.3-2.7-3.2-4.4-3.7
			C1041.4,515.2,1037.8,514.8,1034.1,514.2z M375.8,418.9c0.2,0,0.5,0,0.7-0.1c0-11,0-21.9,0-32.9c0-2-0.3-3.9-0.6-5.9
			c-0.1-0.8-0.5-1.6-0.8-2.3c-0.1,0.8-0.3,1.6-0.3,2.4C375.1,393,375.4,406,375.8,418.9z M376.1,370.5c0.3,0,0.6,0,0.9-0.1
			c0-5.9,0.1-11.7-0.1-17.6c0-0.8-0.7-2.3-1.3-2.3c-2-0.3-1.7,1.3-1.5,2.5C374.8,358.9,375.4,364.7,376.1,370.5z M1026.8,535.1
			c-0.2-1-0.2-2.4-0.8-3.3c-2.3-3-4.8-5.9-7.3-8.7c-0.3-0.4-0.9-0.4-1.4-0.6c0.1,0.4,0.2,0.9,0.4,1.3c2.3,4,4.7,8,7,12
			c0.4,0.7,1,1.2,1.6,1.9C1026.5,536.9,1026.6,536.1,1026.8,535.1z M1052.7,514.4c-0.2-0.3-0.2-0.4-0.3-0.5
			c-4.4-3.5-8.8-7.1-13.3-10.6c-0.2-0.1-0.7,0.1-1,0.1c0.2,0.3,0.3,0.7,0.5,0.9c2.6,3,5,6.1,7.9,8.8c1.3,1.2,3.6,1.2,5.5,1.7
			C1052.2,514.9,1052.5,514.6,1052.7,514.4z M377.6,313.7c0-1.1,0.3-2.1-0.1-2.8c-0.4-0.7-1.3-1.7-1.9-1.7c-0.8,0-1.9,0.7-2.3,1.5
			c-0.4,0.8-0.3,2,0,2.9c0.5,1.6-1.5,4.3,1.9,4.5C379,318.2,377,315.1,377.6,313.7z M996.2,515.6c-3.2,0.5-6.1,1.3-9,1.5
			c-2.9,0.2-4.3,2.2-5.8,4.1c-0.2,0.2-0.2,0.6-0.2,0.9c0.3,0,0.7,0,1-0.1c4.6-1.6,9.3-3.3,13.9-4.9c0.5-0.2,1-0.7,1.4-1
			C997,515.8,996.5,515.7,996.2,515.6z M1019.5,468.5c-0.6-3.6-1.2-7-1.8-10.4c-0.1-0.4-0.5-0.7-0.8-1.1c-0.3,0.4-0.5,0.8-0.8,1.2
			c-2.5,3.8,0,7.1,1,10.5c0.2,0.8,1,1.4,1.6,2.1C1019,469.9,1019.3,469.2,1019.5,468.5z M1001.6,524.9c0-1.3,0-2.9,0-4.5
			c0-0.6-0.3-1.2-0.5-1.8c-0.3,0.5-0.7,1-0.8,1.5c-0.8,4.5-1.6,8.9-2.3,13.4c-0.1,0.5,0.1,1,0.1,1.4c0.5-0.3,1-0.6,1.4-0.9
			C1002.5,531.7,1001.4,528.3,1001.6,524.9z M377.1,332.6c0.1,0,0.2,0,0.2,0c0-1.5,0.1-3-0.1-4.4c-0.1-0.6-1.1-1.4-1.5-1.4
			c-0.7,0.1-1.9,0.8-1.9,1.3c-0.1,3.1,0,6.1,0.2,9.2c0,0.5,0.9,1.3,1.3,1.2c0.7-0.1,1.7-0.7,1.7-1.2
			C377.2,335.8,377.1,334.2,377.1,332.6z M978.8,516.3c1.3-0.5,3.5-0.8,4.8-2c2.5-2.3,4.5-5.1,6.8-7.8c0.2-0.3,0.4-0.6,0.5-0.9
			c-0.4,0-1-0.1-1.3,0.1c-3.9,3.1-7.8,6.3-11.7,9.5c-0.2,0.2-0.2,0.6-0.4,0.9C977.7,516.2,978,516.3,978.8,516.3z M1099.7,303.4
			c-0.1,0-0.2-0.1-0.4-0.1c-0.2-1.3-0.3-2.7-0.5-4c-0.1-0.3-0.4-0.6-0.6-0.9c-0.1,0.3-0.4,0.5-0.4,0.8c-0.7,5-1.5,10-2.2,15
			c-0.1,0.4,0.2,0.9,0.3,1.3c0.3-0.3,0.8-0.6,0.9-1C1097.8,310.8,1098.8,307.1,1099.7,303.4z M376,455.7c-0.8,0.7-2.4,1.4-2.3,2
			c0.1,1.9,0.7,3.8,1.3,5.7c0.2,0.5,1,1.1,1.5,1.1c0.4,0,1.1-0.7,1.3-1.3c0.4-1.4,0.4-2.9,0.9-4.3
			C379.2,456.9,378.7,455.9,376,455.7z M1045.7,486.6C1045.7,486.7,1045.7,486.7,1045.7,486.6c-2.5,0.1-4.9,0.1-7.4,0.1
			c-0.4,0-0.8,0.3-1.2,0.4c0.4,0.2,0.8,0.6,1.2,0.6c2.8,0.5,5.6,0.7,8.3,1.4c2.6,0.7,4.5-0.3,6.5-1.6c0.4-0.2,0.6-0.7,0.9-1
			c-0.4-0.1-0.8-0.4-1.2-0.4C1050.4,486.3,1048.1,486.5,1045.7,486.6z M984.3,488.2c0,0,0-0.1,0-0.1c-1.7,0-3.4,0-5.1,0
			c-1.2,0-2.3,0.2-3.5,0.4c1,0.7,2,1.5,3.1,2.2c0.5,0.3,1.2,0.5,1.7,0.4c3.7-0.6,7.5-1.2,11.2-1.9c0.4-0.1,0.7-0.5,1.1-0.7
			c-0.4-0.1-0.7-0.2-1.1-0.2C989.2,488.2,986.7,488.2,984.3,488.2z M259.1,312.6C259.1,312.6,259.1,312.6,259.1,312.6
			c0-2.9,0-5.9,0-8.8c0-0.4-0.2-0.9-0.3-1.3c-0.3,0.3-0.7,0.7-0.7,1c-0.1,6-0.1,12-0.1,18c0,0.4,0.4,0.7,0.6,1.1
			c0.2-0.4,0.5-0.8,0.5-1.2C259.1,318.5,259.1,315.6,259.1,312.6z M373.1,302.8c0.3,1.3-0.8,3.3,2.1,3.2c2.9-0.1,2.5-2,2.6-3.8
			c0.1-1.8-0.1-3-2.5-3C372.3,299.2,373.2,301.2,373.1,302.8z M1057.3,321.4c-0.7-0.1-1.5-0.6-1.9-0.3c-1.3,1-2.6,2.1-3.8,3.4
			c-0.5,0.6-0.7,1.5-1,2.3c1.7,0,3.8,0.7,4.9,0C1056.7,325.9,1056.7,323.6,1057.3,321.4z M377.7,293.3c0.3-1.8-0.2-2.8-2.3-2.8
			c-1.7,0.1-2.8,0.2-2.7,2.4c0.1,1.9,0.3,3,2.6,2.9C377.3,295.8,378.1,295.2,377.7,293.3z M1028.8,482.7c0.3,0.5,0.6,1.1,0.9,1.7
			c0.5-0.5,1.1-0.9,1.3-1.4c0.9-2.4,1.7-4.8,2.4-7.2c0.1-0.4-0.1-0.8-0.2-1.2c-0.3,0.1-0.6,0.3-1,0.4
			C1029,476.5,1030.1,480,1028.8,482.7z M388.5,497.7c-1.1-0.7-2-1.7-3.2-2c-1.5-0.4-2.6,0.5-2.7,2.2c0,1.6,0.6,2.9,2.4,3
			C386.9,501,387.9,500.2,388.5,497.7z M388.5,449.1c-0.5-1.3-0.9-2.6-1.3-3.8c-0.4,1.1-0.9,2.2-1.2,3.3c-0.7,2.3-2.3,4.5-0.9,7
			c0.2,0.3,0.3,0.6,0.5,0.9c0.3-0.3,0.6-0.5,0.7-0.8C387,453.6,387.7,451.4,388.5,449.1z M527.4,244.9c1.8-0.7,3.4-1.1,4.7-1.9
			c0.9-0.6,1.5-1.7,2.3-2.6c-0.9,0.1-1.9,0.1-2.8,0.2c-1.3,0.1-2.8-0.1-4,0.4c-0.7,0.3-1.1,1.6-1.3,2.5
			C526.3,243.9,527,244.5,527.4,244.9z M262.1,310.4c0,3.6,0,7.1,0,10.7c0,0.5,0.3,0.9,0.4,1.3c0.2-0.4,0.5-0.8,0.5-1.2
			c0.1-7,0.2-14,0.2-21c0-0.4-0.3-0.8-0.5-1.2c-0.2,0.5-0.6,0.9-0.6,1.4C262.1,303.8,262.1,307.1,262.1,310.4z M529.1,238.1
			c4.4-0.2,8.6-0.8,12.1-3.7c0.3-0.3,0.6-0.7,0.9-1c-0.4,0.1-0.9,0.2-1.3,0.3c-3.9,1-7.8,2-11.7,3c-0.5,0.1-1,0.1-1.4,0.2
			c-0.4,0.2-0.7,0.6-1,0.9c0.3,0.1,0.6,0.3,1,0.4C528.1,238.2,528.6,238.1,529.1,238.1z M1030.5,499.5c-1-0.8-1.8-1.5-2.6-2.1
			c-0.4,0.6-1,1.1-1.2,1.7c-0.6,1.7-1.2,3.5-1.7,5.2c-0.2,0.8-0.3,1.7-0.4,2.5c0.8-0.6,1.9-1,2.4-1.8c0.4-0.6,0.4-1.6,0.4-2.4
			c0-1.4-0.3-2.9,2-2.3C1029.7,500.4,1030.1,499.8,1030.5,499.5z M1003.6,475.9c-0.5-0.5-1-1-1.5-1.4c-2.1-1.7-4.2-3.3-6.4-5
			c-1.4-1.1-2.8-2.2-4.2-3.3c1.2,1.4,2.3,2.9,3.6,4.1c2.2,2.1,4.6,4,6.9,6c0.3,0.3,0.9,0.2,1.3,0.3
			C1003.4,476.7,1003.5,476.3,1003.6,475.9z M384.1,461c-0.6-1.5-1.2-3.2-1.9-4.9c-0.5,1.5-1,2.9-1.4,4.4c-0.2,0.8-0.3,1.7-0.3,2.5
			c0,0.5,0.3,1.4,0.5,1.4c0.7,0,1.6,0,1.9-0.5C383.5,463.2,383.7,462.1,384.1,461z M906.9,322.7c-0.5-0.4-0.9-0.9-1-0.8
			c-4.1,1.7-8.1,3.4-12.1,5.3c-0.1,0.1,0.2,1.3,0.4,1.9c0,0.1,1.1,0.1,1.3-0.2c2.6-3.1,5.8-4.8,9.9-5.2
			C905.9,323.6,906.3,323.1,906.9,322.7z M981.4,497.3c0.9-0.2,1.7-0.3,2.5-0.5c-0.6-0.5-1.2-1.1-1.8-1.5c-1-0.6-2.2-1.5-3.3-1.5
			c-1.4,0-2.9,0.7-4.3,1.1c1.2,0.5,2.3,1.2,3.5,1.6C979,496.9,980.2,497.1,981.4,497.3z M387.3,461.4c-0.2,0.2-0.3,0.4-0.5,0.6
			c1,0.8,1.9,1.6,2.9,2.4c0.2-1,0.5-2,0.7-3.1c0-0.2,0-0.5-0.1-0.7c-0.3-1.6-0.7-3.3-1.1-4.9c-0.7,1.8-1.3,3.6-2,5.4
			C387.2,461.1,387.3,461.3,387.3,461.4z M509.2,345.6c-0.7,1-1,1.4-1.3,1.8c-1.8,3.2-1.1,9.9,1.3,12.7c0.2,0.2,0.5,0.4,0.8,0.5
			c0-0.3,0.1-0.7,0-1c-2.3-4-3-8-0.9-12.3C509.3,347.1,509.2,346.7,509.2,345.6z M527.1,462.5c0,0,0-0.1,0-0.1
			c0.9,0,1.8,0.2,2.6-0.1c0.7-0.2,1.7-0.9,1.7-1.3c0-1.4-0.9-1.8-2.3-1.2c-0.7,0.3-1.4,0.4-2.1,0.7c-1.3,0.5-2.5,1.2-3.8,1.7
			C524.5,462.3,525.8,462.4,527.1,462.5z M1017.3,496.1c-1.1,1.5-2.3,2.5-2.2,3.2c0.1,0.8,1.4,2,2.3,2.1c0.7,0.1,2-1.3,2.1-2.2
			C1019.4,498.5,1018.3,497.6,1017.3,496.1z M376.3,531.8c-0.1,0.1-1.1,0.3-1.1,0.6c-0.2,1.9-0.2,3.9-0.3,5.8
			c0.9-1.1,1.7-2.1,2.6-3.2c0.2-0.3,0.3-0.7,0.5-1C379.5,532.2,378.5,531.8,376.3,531.8z M1032.2,471.7c1.8,0.1,5.5-5.2,4.8-6.5
			c-0.1-0.2-0.7-0.3-0.7-0.2c-1.5,1.9-2.9,3.8-4.2,5.7C1031.8,471,1032.1,471.5,1032.2,471.7z M377.9,344.3c-1-1.2-1.6-2.5-2.3-2.6
			c-1.9-0.4-1.7,1.3-1.5,2.4c0.2,1,0.9,1.8,1.4,2.7C376.1,346.1,376.8,345.4,377.9,344.3z M457.2,497.2c0-0.2-0.1-0.4-0.1-0.6
			c-3.8-0.6-7.5-1.2-11.3-1.8c-0.4-0.1-1,0.4-1.4,0.6c0.4,0.3,0.8,0.7,1.2,0.7C449.4,496.5,453.3,496.9,457.2,497.2z M512.3,355.6
			c-0.4,0.3-0.9,0.6-0.9,0.6c0.6,1.1,1,2.3,1.8,3.1c0.7,0.6,1.9,0.6,3,0.8c0.1,0,0.5-0.9,0.4-1C515.2,357.9,513.8,356.8,512.3,355.6
			z M368.7,533.3c0.2,0.6,0.3,1.1,0.4,1.7c1.1-1.2,2.1-2.3,3.2-3.5c-0.5-0.4-0.9-1-1.4-1.1C368.1,529.8,369.7,532.4,368.7,533.3z
			 M517.2,350.5c-1.3,0.8-2.1,1.3-2.9,1.8c1,0.9,2,1.9,3.1,2.8c0,0,0.8-0.6,0.7-0.8C517.9,353.1,517.6,351.9,517.2,350.5z
			 M516.9,329.3c-1,0.6-1.6,1.1-2.3,1.5c0.6,0,1.4-0.2,1.9,0.1c1,0.4,1.9,1,2.7,1.6c0.5,0.4,0.9,1,1.3,1.6c-0.2-0.8-0.1-1.8-0.6-2.3
			C519.2,330.7,518,330.1,516.9,329.3z M797.9,115.4c0,0.1,0,0.3,0,0.4c0.5-0.2,1-0.3,1.5-0.5c-0.5-0.3-1-0.8-1.5-0.9
			c-1.7-0.1-3.4-0.1-5.1-0.1c-0.4,0-0.8,0.4-1.2,0.7c0.4,0.1,0.8,0.3,1.2,0.4C794.5,115.4,796.2,115.4,797.9,115.4z M965.4,497.4
			c1.2-0.2,2.5-0.5,3.8-0.7c-1.4-0.2-2.7-0.5-4.1-0.5c-1.1,0-2.3,0.5-3.4,0.7C962.9,497.1,964.1,497.2,965.4,497.4z M375.3,321.2
			c-0.6,0.6-1.1,1-1.6,1.5c0.6,0.3,1.2,0.9,1.7,0.8c0.7-0.1,1.3-0.8,1.9-1.2C376.8,322,376.2,321.7,375.3,321.2z M375.1,484.1
			c-1.2,1.4-2,2.1-1.9,2.4c0.2,0.6,0.9,1.1,1.4,1.7c0.5-0.6,1.2-1.1,1.3-1.8C376.2,485.8,375.6,485.1,375.1,484.1z M1027,494.5
			c0.4,0.6,0.8,1.2,1.2,1.8c0.5-0.5,1.4-1.1,1.3-1.4c-0.1-0.8-0.8-1.4-1.3-2.1C1027.9,493.3,1027.6,493.8,1027,494.5z M1072.5,322.5
			c-0.8-0.3-1.7-0.7-1.8-0.6c-0.5,0.7-0.9,1.6-1.1,2.4c-0.1,0.2,0.4,0.6,0.6,1C1070.8,324.6,1071.3,323.9,1072.5,322.5z
			 M895.1,338.9c-1.4-1.5-2-2.2-2.6-2.9c-0.2,0.4-0.6,0.9-0.5,1.2c0.3,0.7,0.9,1.4,1.5,2C893.7,339.4,894.3,339,895.1,338.9z
			 M532.3,285.2c-0.5,0.7-1.2,1.2-1.1,1.5c0.2,0.5,0.8,0.9,1.3,1.4c0.3-0.4,0.9-0.9,0.9-1.3C533.4,286.3,532.8,285.8,532.3,285.2z
			 M266.7,310.7c-0.3,0.6-0.6,0.9-0.7,1.3c0,0.2,0.5,0.6,0.6,0.6c0.4-0.1,0.8-0.5,1.1-0.7C267.5,311.6,267.3,311.2,266.7,310.7z
			 M356.5,471c0.4-0.4,0.7-0.6,0.9-0.8c-0.4-0.4-0.7-0.8-1.2-1.1c-0.1,0-0.6,0.4-0.6,0.5C355.8,470,356.1,470.4,356.5,471z
			 M1013.8,485.1c-0.3-0.4-0.5-0.7-0.6-0.9c-0.3,0.3-0.7,0.6-1,0.9c-0.1,0.1,0.3,0.5,0.5,0.8C1013,485.6,1013.3,485.4,1013.8,485.1z
			 M914.4,327.8c-0.3-0.4-0.5-0.8-0.9-1c-0.1-0.1-0.5,0.3-0.8,0.4c0.3,0.4,0.6,0.9,0.9,1.3C913.8,328.4,914,328.2,914.4,327.8z
			 M353,521.6c-0.3-0.1-0.6-0.2-0.9-0.2c-0.1,0-0.2,0.4-0.3,0.6c0.3,0.1,0.6,0.2,0.8,0.2C352.7,522.1,352.8,521.8,353,521.6z
			 M511.5,350.7c0.3-0.5,0.6-0.8,0.6-1c-0.1-0.2-0.5-0.3-0.7-0.5c-0.1,0.2-0.3,0.4-0.3,0.5C511.1,350.1,511.3,350.3,511.5,350.7z
			 M1005.1,511.2c0.4-0.1,0.6-0.2,0.8-0.2c-0.2-0.2-0.4-0.6-0.7-0.7c-0.2-0.1-0.5,0.2-0.7,0.3
			C1004.7,510.8,1004.9,511.1,1005.1,511.2z M397.3,538c0.1-0.4,0.3-0.7,0.2-0.8c-0.2-0.3-0.5-0.4-0.7-0.6c-0.1,0.2-0.3,0.4-0.2,0.5
			C396.7,537.4,397,537.6,397.3,538z M517.3,334.2c-0.3-0.3-0.7-0.7-0.8-0.6c-0.3,0.2-0.6,0.5-0.8,0.8c0.3,0.2,0.5,0.5,0.8,0.5
			C516.7,334.8,517,334.5,517.3,334.2z M1067.7,302.3c-0.3,0.4-0.6,0.6-0.6,0.8c0,0.1,0.2,0.5,0.3,0.5c0.3,0,0.7-0.2,0.7-0.4
			C1068.2,303,1067.9,302.7,1067.7,302.3z M770.5,110.1c0,0.1,0,0.1,0,0.2c0.2,0,0.4,0,0.6,0c0,0,0-0.2,0-0.2
			C770.9,110.1,770.7,110.1,770.5,110.1z M1023.7,510.6c0.2-0.3,0.4-0.5,0.6-0.8c0,0-0.1-0.2-0.2-0.3c-0.3,0.2-0.5,0.3-0.8,0.5
			C1023.4,510.2,1023.5,510.3,1023.7,510.6z M776.1,109.9c-0.1,0.2-0.1,0.3-0.2,0.5c0.2,0.1,0.4,0.2,0.6,0.2c0.1,0,0.1-0.3,0.2-0.5
			C776.5,110,776.3,110,776.1,109.9z M1014.1,513.1c0.2,0.1,0.4,0.3,0.6,0.2c0.2,0,0.4-0.2,0.6-0.3c-0.2-0.1-0.4-0.3-0.6-0.3
			C1014.5,512.8,1014.3,513,1014.1,513.1z M385.7,503.4c-0.1,0-0.2-0.1-0.3-0.1c-0.1,0-0.2,0.1-0.3,0.1c0.1,0,0.2,0.1,0.3,0.1
			C385.5,503.6,385.6,503.5,385.7,503.4z M475,243.8c0.2-0.1,0.4-0.2,0.6-0.3c-0.2-0.1-0.4-0.4-0.5-0.3c-0.2,0-0.4,0.2-0.7,0.4
			C474.5,243.7,474.7,243.7,475,243.8z M1006.5,478.5c-0.1-0.1-0.1-0.2-0.2-0.2c-0.1,0.1-0.2,0.2-0.2,0.2c0.1,0.1,0.2,0.2,0.3,0.3
			C1006.5,478.7,1006.5,478.6,1006.5,478.5z M1038.2,394.8l-0.2,0.3l0.2,0.1L1038.2,394.8z M1010.1,481.9c-0.2-0.1-0.4-0.1-0.6-0.1
			c0,0.2,0,0.3,0,0.5c0,0,0.2,0.1,0.3,0C1009.9,482.1,1010,482,1010.1,481.9z M1018.9,505c0.1,0,0.2,0.1,0.3,0.1
			c-0.1-0.1-0.1-0.2-0.2-0.3C1019,504.9,1019,505,1018.9,505z M1017.3,517.3l0.2,0l-0.1-0.3L1017.3,517.3z M819.1,502.3
			c-0.1-0.1-0.1-0.2-0.2-0.3c-0.1,0.1-0.2,0.1-0.3,0.2c0.1,0.1,0.2,0.3,0.3,0.4C819,502.5,819.1,502.4,819.1,502.3z M780.9,116.3
			c0.2-0.1,0.3-0.2,0.5-0.3c0,0-0.1-0.3-0.2-0.2c-0.2,0-0.4,0.1-0.5,0.2C780.7,116.1,780.8,116.2,780.9,116.3z M1002.1,495.9
			c-0.2-0.1-0.5-0.3-0.5-0.2c-0.2,0.1-0.2,0.4-0.3,0.6c0.2,0,0.4,0.2,0.6,0.1C1001.9,496.3,1002,496,1002.1,495.9z"/>
		<path class="st0" d="M521.4,474.3c-26.9,0.4-53.8,0.9-80.7,1.2c-5.6,0.1-8.9,3.5-12.5,7c-0.9,0.9-1.9,1.6-2.8,2.4
			c0.5-1.2,0.8-2.6,1.6-3.6c3.2-4.7,7.4-7.9,13.4-7.9c18.1-0.2,36.3-0.6,54.4-0.8c35.9-0.4,71.8-0.8,107.7-1.2
			c1.4,0,2.8,0.7,4.2,1.1c-1.4,0.4-2.8,1.1-4.3,1.1c-27,0.1-54,0.1-81.1,0.1C521.4,473.9,521.4,474.1,521.4,474.3z"/>
		<path class="st0" d="M602.9,566.7c-12.7-2.2-25.2-4.3-37.7-6.6c-18.4-3.4-36.9-6.5-55.1-10.5c-25.6-5.5-51.1-11.7-76.6-17.7
			c-1.8-0.4-3.3-1.8-5-2.9c-0.2-0.2-0.3-0.6-0.4-1c0.3,0,0.7-0.2,0.9-0.1c13.9,3.6,27.8,7.5,41.8,10.6c26.7,5.9,53.4,11.5,80.2,16.8
			c16.4,3.2,33,5.7,49.5,8.5c0.8,0.1,1.8,0.2,2.5,0.6c0.6,0.3,1,1,1.5,1.5C604,566.2,603.4,566.5,602.9,566.7z"/>
		<path class="st0" d="M915.4,209.3c-0.8-1.1-1.8-1.8-1.7-2.5c0.1-0.6,1.2-1.6,1.8-1.6c0.6,0,1.7,1,1.8,1.7
			C917.3,207.5,916.3,208.2,915.4,209.3z"/>
		<path class="st0" d="M1067.9,163.6c-1.3,0.7-2.1,1.4-2.8,1.4c-0.5,0-1.3-1.2-1.2-1.8c0.1-0.5,1.1-1.3,1.7-1.3
			C1066.2,161.9,1066.8,162.7,1067.9,163.6z"/>
		<path class="st0" d="M920,224.1c-0.9-1.1-1.6-1.7-1.8-2.5c-0.1-0.3,1.1-1.5,1.6-1.4c0.7,0.2,1.6,0.9,1.9,1.6
			C921.7,222.2,920.8,223,920,224.1z"/>
		<path class="st0" d="M1070,180.9c-0.9-1.1-1.8-1.6-1.8-2.2c0-0.6,0.9-1.6,1.4-1.6c0.6,0,1.3,0.7,2,1.2
			C1071.2,179,1070.7,179.7,1070,180.9z"/>
		<path class="st0" d="M1078.3,200c-0.9,0.7-1.6,1.6-2.1,1.5c-0.7-0.1-1.3-0.9-1.9-1.4c0.6-0.6,1.1-1.6,1.9-1.8
			C1076.5,198.2,1077.3,199.2,1078.3,200z"/>
		<path class="st0" d="M930.4,255.5c1,1.2,2.1,1.9,2,2.5c0,0.7-1,1.6-1.7,1.8c-0.3,0.1-1.6-0.9-1.6-1.5
			C929,257.7,929.7,256.9,930.4,255.5z"/>
		<path class="st0" d="M1080.3,212.5c0.9,1.1,1.8,1.8,1.7,2.2c-0.2,0.8-1.1,1.3-1.6,2c-0.6-0.5-1.6-1.1-1.6-1.6
			C1078.7,214.4,1079.5,213.7,1080.3,212.5z"/>
		<path class="st0" d="M926.4,240.6c0.7,1.1,1.5,1.9,1.5,2.6c0,0.5-1.3,1.5-1.6,1.4c-0.7-0.3-1.5-1.1-1.7-1.9
			C924.6,242.3,925.6,241.6,926.4,240.6z"/>
		<path class="st0" d="M1091.3,248.6c0.7,1.5,1.4,2.3,1.3,3c-0.1,0.6-1.3,1.6-1.6,1.5c-0.8-0.4-1.7-1.2-1.8-1.9
			C1089.2,250.6,1090.3,249.9,1091.3,248.6z"/>
		<path class="st0" d="M941.5,292.1c0.8,1,1.7,1.7,1.6,2.1c-0.2,0.8-1,1.4-1.6,2.1c-0.6-0.7-1.4-1.2-1.6-2
			C939.9,293.8,940.8,293.1,941.5,292.1z"/>
		<path class="st0" d="M1086.6,233.9c0.8,1.1,1.8,1.8,1.7,2.3c-0.1,0.7-1,1.3-1.6,1.9c-0.6-0.5-1.6-1-1.6-1.5
			C1085.1,235.8,1085.8,235.1,1086.6,233.9z"/>
		<path class="st0" d="M939.6,279.4c-1,0.7-1.7,1.5-2.3,1.5c-0.6,0-1.2-0.9-1.7-1.4c0.6-0.6,1.1-1.5,1.8-1.7
			C937.9,277.7,938.6,278.6,939.6,279.4z"/>
		<path class="st0" d="M462.5,193.4c0.4,0.2,0.7,0.2,0.9,0.4c5.9,4.7,13.3,5.5,20.3,7.4c7.1,1.9,13.4,5,17.2,11.7
			c0.9,1.6,1.7,3.3,2.3,5c0.3,0.8-0.1,1.8-0.2,2.7c-0.6-0.6-1.3-1.2-1.9-1.7c-0.1-0.1-0.1-0.2-0.2-0.3c-2.7-8.3-9-12.6-17.1-14.8
			c-3.8-1-7.7-1.6-11.4-2.9c-3.5-1.2-6.7-3-10-4.7c-0.5-0.2-0.7-1.2-0.8-1.8C461.6,194,462.2,193.6,462.5,193.4z"/>
		<path class="st0" d="M325.8,311.4c0.8,0.7,1.2,1.1,1.7,1.5c-1.3,0.7-2.6,1.6-4,2.1c-0.5,0.2-1.3-0.7-1.9-1.1
			C323,313,324.3,312.2,325.8,311.4z"/>
		<path class="st0" d="M919.7,306.1c-1.3-2-2.5-3.1-2.7-4.3c-0.4-1.9,1.1-2.9,2.9-2.9c2,0,3.4,1.3,3.1,3.2
			C922.8,303.3,921.3,304.2,919.7,306.1z M920.1,301.2c-0.3,0.4-0.5,0.6-0.7,0.8c0.2,0.2,0.4,0.4,0.7,0.5c0.1,0,0.5-0.3,0.5-0.3
			C920.5,301.8,920.3,301.6,920.1,301.2z"/>
		<path class="st0" d="M917,287.7c1.4,2,3,3.3,2.8,4.3c-0.2,1.2-1.8,2.6-3.1,2.8c-1.8,0.4-3.1-1.3-2.9-3
			C914.1,290.7,915.5,289.6,917,287.7z M917.1,291.1c-0.3,0.4-0.7,0.5-0.7,0.8c0,0.2,0.3,0.5,0.4,0.7c0.2-0.2,0.6-0.3,0.7-0.6
			C917.6,291.8,917.3,291.5,917.1,291.1z"/>
		<path class="st0" d="M646.3,514.6c3.9,0,7.6,3.7,7.6,7.6c0,3.8-3.7,7.4-7.7,7.4c-4,0-7.6-3.5-7.5-7.5
			C638.8,518.1,642.4,514.6,646.3,514.6z M651.1,522.2c0-2.6-2.4-5.1-4.9-5c-2.5,0.1-4.8,2.5-4.8,5.1c0.1,2.6,2.1,4.6,4.7,4.6
			C649.1,526.9,651.2,524.9,651.1,522.2z"/>
		<path class="st0" d="M489.7,317.5c-0.7,1.7-1.3,3.1-2.1,4.5c-0.1,0.2-1.1-0.1-1.7-0.2c1-1.7,1.9-3.3,2.9-5
			C489.2,317.1,489.5,317.3,489.7,317.5z"/>
		<path class="st0" d="M687.4,599.3c1,0,2,0.1,2.9,0c3.2-0.1,5.4,1.2,6.7,4.1c1.3,2.9,0.7,5.4-1.8,8c-0.4,0.4-0.7,0.9-1.1,1.4
			c-0.9,0.1-1.7,0.1-2.6,0.2c-3.9,0.2-6.4-1.1-7.5-4c-1.2-3.1-0.3-6.2,2.4-8.6C686.8,600,687,599.7,687.4,599.3z M690.6,601.5
			c-2.9-0.1-4.7,1.6-4.7,4.4c0,2.7,1.8,4.6,4.5,4.7c2.8,0.1,4.6-1.6,4.7-4.4C695.1,603.5,693.3,601.6,690.6,601.5z"/>
		<path class="st0" d="M521.4,241.9c0,3.1-1.8,5.3-4.3,5.3c-2.3,0-4.6-2.5-4.5-4.9c0-2.2,2.4-4.3,4.7-4.2
			C519.3,238.1,521.4,240,521.4,241.9z M520.2,242.6c-1.6-0.9-2.5-1.9-3.2-1.8c-0.8,0.2-1.4,1.3-2.1,2c0.8,0.6,1.5,1.7,2.3,1.8
			C517.9,244.6,518.7,243.6,520.2,242.6z"/>
	</g>
</g>
</svg>
